<svg id="Layer_1" data-name="Layer 1" xmlns="http://www.w3.org/2000/svg" viewBox="0 0 574.24 495.11"><defs><style>.cls-1{fill:#414042;}</style></defs><path class="cls-1" d="M592.16,360.84a219.84,219.84,0,0,0-10.74-51.26c-9-26.45-22.54-50.23-42.27-70.21-23.24-23.52-50.71-38.43-84.26-40.84a122.52,122.52,0,0,0-41.83,4.53,5.64,5.64,0,0,1-2.53-1.55,203.13,203.13,0,0,0-35.59-23.85,246,246,0,0,0-60.85-22.54,260.68,260.68,0,0,0-47.19-6.42c-8-.35-16.08-.33-24.13,0q-8.67.34-17.3,1.33a252,252,0,0,0-43.17,8.73,220.07,220.07,0,0,0-32.66,12.31h0A199.19,199.19,0,0,0,125.1,184a237.28,237.28,0,0,0-40.49,31A272.29,272.29,0,0,0,55.3,248.18h0c-.31.35-.64.67-.92,1A284.74,284.74,0,0,0,35,277.75c-5.41,9.27-10.16,18.84-13.28,29.16-2.15,7.14-3.38,14.4-2.55,21.85,1.32,11.8,7.83,19.87,18.31,25.08,2.82,1.4,5.89,2.09,8.69,3.47h0c-.32,1.43-.65,2.85-1,4.27-3.22,13.88-4.2,28-4.54,42.17-.13,5.7.3,11.42.64,17.13a243.39,243.39,0,0,0,4.25,32.41c3.67,18.61,9.13,36.63,17.8,53.62A161.07,161.07,0,0,0,87.73,542.5,150,150,0,0,0,113,564.78a3.66,3.66,0,0,0,.21.55C125.06,585.69,141,601.87,162,612.85c19.21,10,39.86,14.19,61.36,14.57a187.39,187.39,0,0,0,35.54-2.84,124.55,124.55,0,0,0,21.83-5.47,100.3,100.3,0,0,0,10.12-3.56,117.68,117.68,0,0,0,22.66-12,8.91,8.91,0,0,0,1.05-.57,127,127,0,0,0,22.87-19.74,114.2,114.2,0,0,0,12.81-16.48c.51-.7,1-1.38,1.51-2.1,9.8-15.06,16.73-31.42,22-48.54a277.46,277.46,0,0,0,8-34.14,205.79,205.79,0,0,0,2.92-21.12h0c.09-.39.22-.77.27-1.16,1.52-13,2.42-26.12,2.8-39.23a585.18,585.18,0,0,0-1-62.68,236.71,236.71,0,0,0-4.78-34.17c-2-8.81-4.84-17.28-9.68-25-8.19-13.09-22.25-15-33.5-10.33-7.34,3.07-12.75,8.57-17.58,14.7-4,5.1-6.86,10.94-10.54,16.25a8.57,8.57,0,0,0-1.61,5.16q.08,57.56.05,115.1c0,.87,0,1.73.07,2.6h0a7,7,0,0,0-.07.79q0,39.33,0,78.67h0a7.82,7.82,0,0,0-.31,1.15c-1.32,10.32-6.93,17.39-16.31,21.67a62,62,0,0,1-14.11,4h0a15.15,15.15,0,0,0-1.79.06,86.88,86.88,0,0,1-17.43.66A55.49,55.49,0,0,1,246,547.6h0c-3.32-1.18-6.76-2-10-3.53-11.16-5.44-17.34-13.9-17.3-26.74.14-35.68,0-71.36,0-107,0-1.13,0-2.26-.07-3.39,0-.4.05-.8.05-1.2q0-57.93,0-115.87a6.72,6.72,0,0,0-.33-2.56,14,14,0,0,0-.56-4.13c-2.24-9.77-10.11-14.83-20-13.11-3.73.65-6.83,2.44-10,4.3a3.74,3.74,0,0,1,1.34-1.68c12.29-11.68,25.84-21.54,41.51-28.22,9.37-4,19.11-6.45,29.42-6.3a70.86,70.86,0,0,1,14.94,2.15h0c.42.19.83.42,1.26.57,9.82,3.56,18.21,9.07,24.26,17.78h0c7.14,10.74,8.13,23,8.76,35.48A263.2,263.2,0,0,1,327.16,273h0a175.54,175.54,0,0,1,19.13-16.26c18-12.92,37.71-19.76,60.15-16.95,9.68,1.21,18.89,3.82,27.32,8.87,11.37,6.81,19.35,16.67,25.43,28.24,2.39,4.55,4.18,9.35,6.18,14.06h0c.28,1,.54,1.92.86,2.87,4.92,14.92,7.66,30.3,9.62,45.84,1.21,9.59,1.75,19.22,2.41,28.85h0c.18,12,.27,24-.45,35.93-.66,11-1.73,22-3.39,32.95a301.78,301.78,0,0,1-10.53,45.87,233.68,233.68,0,0,1-27.57,58.95c-4.45,6.73-9.44,13-14.51,19.3-.42.42-.87.82-1.27,1.26a169.87,169.87,0,0,1-45,36.36c-7.09,4-14.35,7.63-20.88,12.51-4.66,3.48-9.12,7.19-12.23,12.2-4.37,7-2.39,13.26,5.18,16.57a39.76,39.76,0,0,0,14.38,3c16,.7,31.39-2.51,46.53-7.22,26.92-8.38,51.74-21,74.89-37a174.45,174.45,0,0,0,16.37-12.43h0a182.1,182.1,0,0,0,15.36-13.34c19.14-18.16,35.18-38.7,46.9-62.41a304.1,304.1,0,0,0,27.51-84.55,156.93,156.93,0,0,0,2.52-21.18h0c.12-.72.31-1.44.36-2.16A277.56,277.56,0,0,0,592.16,360.84Z" transform="translate(-18.88 -148.44)"/></svg>