<svg id="Layer_1" data-name="Layer 1" xmlns="http://www.w3.org/2000/svg" viewBox="0 0 285.39 296.9"><path d="M-106.07,207.85a10.42,10.42,0,0,0-4.48-7.77,17.38,17.38,0,0,0-10.24-2.79,19.48,19.48,0,0,0-7.59,1.34,11.19,11.19,0,0,0-4.84,3.62,8.8,8.8,0,0,0-1.72,5.22,7.77,7.77,0,0,0,1.13,4.23,9.56,9.56,0,0,0,3.07,3,20.74,20.74,0,0,0,4.31,2.08,45.39,45.39,0,0,0,4.76,1.41l7.32,1.83a51.16,51.16,0,0,1,8.52,2.79,30.24,30.24,0,0,1,7.36,4.42,19.84,19.84,0,0,1,5.17,6.44,19.43,19.43,0,0,1,1.9,8.85,21.16,21.16,0,0,1-3.5,12.07A23.15,23.15,0,0,1-105,262.74a39.59,39.59,0,0,1-16,2.91,40.47,40.47,0,0,1-15.8-2.82,23.4,23.4,0,0,1-10.45-8.23,24.33,24.33,0,0,1-4.06-13.2h13.92a11.83,11.83,0,0,0,2.51,6.79,13.29,13.29,0,0,0,5.78,4,22.62,22.62,0,0,0,8,1.34,21.74,21.74,0,0,0,8.1-1.4,12.88,12.88,0,0,0,5.47-3.88,9.37,9.37,0,0,0,2-5.86,7.57,7.57,0,0,0-1.79-5.05,13.54,13.54,0,0,0-4.9-3.35,49,49,0,0,0-7.34-2.42l-8.89-2.29q-9.64-2.48-15.23-7.53t-5.58-13.44a20.1,20.1,0,0,1,3.75-12.09,24.8,24.8,0,0,1,10.24-8.06,35.78,35.78,0,0,1,14.68-2.88A34.61,34.61,0,0,1-106,188.2a24,24,0,0,1,9.86,8,20.45,20.45,0,0,1,3.7,11.68Z" transform="translate(151.33 25.72)"/><path d="M-9,225.43Q-9,238-13.75,247a33.61,33.61,0,0,1-12.81,13.74,35.5,35.5,0,0,1-18.36,4.77,35.41,35.41,0,0,1-18.36-4.79A33.73,33.73,0,0,1-76.09,247q-4.71-9-4.71-21.56t4.71-21.6a33.55,33.55,0,0,1,12.81-13.74,35.5,35.5,0,0,1,18.36-4.77,35.5,35.5,0,0,1,18.36,4.77,33.55,33.55,0,0,1,12.81,13.74Q-9,212.82-9,225.43Zm-14.23,0a36.4,36.4,0,0,0-2.76-15,20.9,20.9,0,0,0-7.64-9.27A20.31,20.31,0,0,0-44.92,198a20.29,20.29,0,0,0-11.25,3.14,20.9,20.9,0,0,0-7.64,9.27,36.24,36.24,0,0,0-2.77,15,36.24,36.24,0,0,0,2.77,15,20.9,20.9,0,0,0,7.64,9.27,20.37,20.37,0,0,0,11.25,3.14,20.39,20.39,0,0,0,11.25-3.14A20.9,20.9,0,0,0-26,240.43,36.4,36.4,0,0,0-23.27,225.43Zm-26.45,12.81h12.81l7.58,9.84,5.42,6.4,13,16.7H-24.64L-33.48,260l-3.78-5.34Z" transform="translate(151.33 25.72)"/><path d="M4.45,264.47V186.39H18.6v66.22H53v11.86Z" transform="translate(151.33 25.72)"/><path d="M130.7,29.79Q108.62,4,86.65-21.95a15.14,15.14,0,0,0-4.49-3.77H-48.22A25.21,25.21,0,0,0-62.28-15.41,30,30,0,0,0-67.2,0c0,.94,0,1.89,0,2.83q0,85,0,170h15.84V119.36q0-57.16,0-114.33A30.58,30.58,0,0,1-51.12.24c.63-4.1,2.69-6.5,6.19-7.25a16.74,16.74,0,0,1,3.6-.31q54.8,0,109.59,0c3.57,0,3.57,0,3.58,4.29,0,10.4,0,20.81,0,31.21,0,11.19,6.58,18.92,16.07,19,9.09,0,18.18.09,27.27,0,2.34,0,3,.87,3,3.6q-.08,92.32,0,184.67c0,7.7-2.9,11.09-9.47,11.09H68v18.6q20.72,0,41.42,0c14.69,0,24.56-11.57,24.56-28.8q0-98.43.05-196.87A13.87,13.87,0,0,0,130.7,29.79Z" transform="translate(151.33 25.72)"/></svg>