<svg xmlns="http://www.w3.org/2000/svg" viewBox="0 0 463.07 461.55"><defs><style>.cls-1{fill:#f0f0f0;}.cls-2{fill:#e0e0e0;}.cls-3{fill:#27debf;}.cls-4{opacity:0.2;}.cls-10,.cls-20,.cls-21,.cls-5{fill:#fff;}.cls-6{fill:#37474f;}.cls-7{fill:#263238;}.cls-11,.cls-8{fill:#455a64;}.cls-9{opacity:0.15;}.cls-10{opacity:0.7;}.cls-11,.cls-17{opacity:0.8;}.cls-12{fill:#ebebeb;}.cls-13,.cls-18,.cls-20{opacity:0.3;}.cls-14,.cls-21{opacity:0.4;}.cls-15{opacity:0.5;}.cls-16,.cls-17{fill:#fafafa;}.cls-19{opacity:0.1;}.cls-22{fill:#ffa8a7;}.cls-23{fill:#f5f5f5;}.cls-24{fill:#f28f8f;}</style></defs><g id="Character"><ellipse id="Floor-2" data-name="Floor" class="cls-1" cx="231.54" cy="327.87" rx="231.54" ry="133.68"/><path id="Shadow" class="cls-2" d="M324.09,382.34a12.58,12.58,0,0,0-1.85-6.51h0a14,14,0,0,0-.79-1.21l0-.06c-.28-.37-.57-.73-.87-1.06l-.08-.09a11.51,11.51,0,0,0-.94-.91l-.09-.07a8.89,8.89,0,0,0-1-.75c-.21-.13-.4-.24-.6-.34l-.27-.12-.31-.14-.45-.14-.12,0-.51-.1h0a3.18,3.18,0,0,0-1.91.29h0c-5.29,2.65-35.77,22.05-49.8,30.79l-6.95,4.22a1.49,1.49,0,0,0-.51.49l-.05.07a1.73,1.73,0,0,0-.16.3l-.08.21a2.13,2.13,0,0,0-.08.27l0,.18-1.14.63-1,.56a40.84,40.84,0,0,0-7.93-5.88c-9.62-5.55-22.36-8.61-35.88-8.61s-26.26,3.06-35.87,8.61c-10,5.75-15.45,13.52-15.45,21.87s5.49,16.12,15.45,21.87c9.61,5.55,22.35,8.61,35.87,8.61s26.26-3.06,35.88-8.61c10-5.75,15.45-13.52,15.45-21.87a20.09,20.09,0,0,0-3.27-10.8l.92-.5a2,2,0,0,0,2,.19l0,0c4.76-2.62,51.17-22.4,60.65-27.48h0C323.31,385.58,324,384.26,324.09,382.34Zm-82,56.73c-8.3,4.8-19.48,7.44-31.49,7.44s-23.18-2.64-31.49-7.44C171.93,435,168,429.89,168,424.8s3.93-10.16,11.06-14.27c8.3-4.8,19.49-7.44,31.49-7.44s23.19,2.64,31.49,7.44c7.14,4.11,11.07,9.18,11.07,14.27S249.18,435,242,439.07Z" transform="translate(-18.46 -19.23)"/><path id="Shadow-2" data-name="Shadow" class="cls-2" d="M331.18,264.87l-47.07-27.24a9.57,9.57,0,0,0-8.66,0l-239.09,138c-2.39,1.38-2.39,3.62,0,5L83.43,407.9a9.57,9.57,0,0,0,8.66,0l89.6-51.73,13.77,8c7.29,4.21,19.12,4.21,26.41,0l41.06-23.53c7.29-4.21,7.29-11,0-15.24l-13.76-8,82-47.54C333.57,268.48,333.57,266.25,331.18,264.87Z" transform="translate(-18.46 -19.23)"/><ellipse id="Shadow-3" data-name="Shadow" class="cls-2" cx="391.67" cy="347.89" rx="46.15" ry="26.65"/><g id="Plants"><path class="cls-3" d="M436.35,337c0-6.24-1.24-17.76,4-28.56,3.83-7.82,10.68-15.42,17.06-14.67,5.94.71,6.48,9.83.8,16.08s-12.91,14.9-14.48,28.71l-4.09,10.26Z" transform="translate(-18.46 -19.23)"/><g class="cls-4"><path d="M436.35,337c0-6.24-1.24-17.76,4-28.56,3.83-7.82,10.68-15.42,17.06-14.67,5.94.71,6.48,9.83.8,16.08s-12.91,14.9-14.48,28.71l-4.09,10.26Z" transform="translate(-18.46 -19.23)"/></g><path class="cls-5" d="M438.48,341.42a.43.43,0,0,0,.36-.44c-.72-17.77,5.06-32.51,16.72-42.65a.43.43,0,1,0-.57-.65C443.13,308,437.24,323,438,341a.44.44,0,0,0,.45.42Z" transform="translate(-18.46 -19.23)"/><path class="cls-3" d="M435.22,359.37a22.13,22.13,0,0,0,11,3.05c6.68.16,9.15-3.35,9.15-3.35s-3.4-5.8-7.35-7a36.83,36.83,0,0,1,12,3.14s4-.48,4.77-6.79c0,0-2.86-3.36-11.07-4.28a26.48,26.48,0,0,1,11.88-1c.55.14,1.72-8,1.9-11.77s-1.27-3.5-4.21-3.88-12.66.45-14.22,2.24-1.76,7.26-1.76,7.26-2.1-2.79-2.06-5.54a10.18,10.18,0,0,0-6,.95c-3,1.54-4,2.77-4.17,5.1s-.34,5.83.59,8.54c0,0-2.77-4.46-2.63-8.35a41.2,41.2,0,0,0-2.82,5.92C428.88,347,430.43,355.2,435.22,359.37Z" transform="translate(-18.46 -19.23)"/><path class="cls-5" d="M435.33,359.79a.42.42,0,0,0,.3-.29c3.81-11.66,21.71-27,28.55-29.34a.43.43,0,0,0,.28-.54.42.42,0,0,0-.55-.28c-7,2.35-25.23,18-29.1,29.89a.43.43,0,0,0,.28.55A.4.4,0,0,0,435.33,359.79Z" transform="translate(-18.46 -19.23)"/></g><g id="Device-2" data-name="Device"><g id="Monitor"><path class="cls-6" d="M221.87,360.21l35.38-20.45c3.65-2.11,5.47-4.87,5.47-7.63s0-4.92,0-4.92l-33.28-18.89a7.76,7.76,0,0,1-3.52-6.1V258.61l-61.79,35.7v43.61a7.76,7.76,0,0,0,3.52,6.1l27.8,16.19C202.76,364.42,214.58,364.42,221.87,360.21Z" transform="translate(-18.46 -19.23)"/><path class="cls-7" d="M179,345.65v4.9L167.65,344a7.8,7.8,0,0,1-3.52-6.1V294.31l11.77-6.79c.25,3,.51,6.08.76,9.09l-8.26,4.78v34.07a7.74,7.74,0,0,0,3.52,6.1Z" transform="translate(-18.46 -19.23)"/><path class="cls-8" d="M168.4,335.47a7.8,7.8,0,0,0,3.52,6.1l23.54,13.72c7.29,4.21,19.12,4.21,26.41,0l35.39-20.45c7.3-4.21,7.3-11,0-15.24l-23.56-13.74a7.76,7.76,0,0,1-3.52-6.1V265.69l-61.79,35.7Z" transform="translate(-18.46 -19.23)"/><path class="cls-9" d="M240.88,310h0l-7.17-4.14a7.76,7.76,0,0,1-3.52-6.1V265.69l-61.79,35.7v34.08a7.8,7.8,0,0,0,3.52,6.1l7.05,4.07Z" transform="translate(-18.46 -19.23)"/><path class="cls-6" d="M262.73,327.22v4.92c0,2.76-1.83,5.51-5.47,7.62L221.88,360.2a26.4,26.4,0,0,1-12.61,3.13v-4.9a26.4,26.4,0,0,0,12.61-3.13l35.38-20.46C260.9,332.75,262.73,330,262.73,327.22Z" transform="translate(-18.46 -19.23)"/><path class="cls-8" d="M69.19,382.52a9.44,9.44,0,0,0,8.53-.16l239-138a9.75,9.75,0,0,0,4.4-7.63V27.64a9.45,9.45,0,0,0-4.13-7.47,9.41,9.41,0,0,0-8.53.16l-238.94,138a9.73,9.73,0,0,0-4.4,7.62V375.05A9.45,9.45,0,0,0,69.19,382.52Z" transform="translate(-18.46 -19.23)"/><path class="cls-6" d="M77.73,382.36l238.94-138a9.71,9.71,0,0,0,4.4-7.62V27.63c0-2.81-2-3.95-4.4-2.54L77.73,163a9.75,9.75,0,0,0-4.4,7.63V379.81C73.32,382.62,75.29,383.76,77.73,382.36Z" transform="translate(-18.46 -19.23)"/><path class="cls-3" d="M81.58,352.19V173.41a5.85,5.85,0,0,1,2.64-4.58l226-130.45c1.46-.84,2.64-.16,2.64,1.53V218.69a5.83,5.83,0,0,1-2.64,4.57l-226,130.45C82.76,354.55,81.58,353.87,81.58,352.19Z" transform="translate(-18.46 -19.23)"/><path class="cls-10" d="M81.58,352.19V173.41a5.85,5.85,0,0,1,2.64-4.58l226-130.45c1.46-.84,2.64-.16,2.64,1.53V218.69a5.83,5.83,0,0,1-2.64,4.57l-226,130.45C82.76,354.55,81.58,353.87,81.58,352.19Z" transform="translate(-18.46 -19.23)"/><path class="cls-3" d="M196.75,304.92a2.64,2.64,0,0,1-1.33-.35,3.37,3.37,0,0,1-1.46-3.1,9.57,9.57,0,0,1,4.38-7.59h0a3,3,0,0,1,4.88,2.82,9.54,9.54,0,0,1-4.38,7.58A4.26,4.26,0,0,1,196.75,304.92Zm3.69-10.67a3.29,3.29,0,0,0-1.6.49h0a8.6,8.6,0,0,0-3.88,6.73,2,2,0,0,0,3.38,1.95,8.59,8.59,0,0,0,3.88-6.72,2.45,2.45,0,0,0-1-2.25A1.72,1.72,0,0,0,200.44,294.25Z" transform="translate(-18.46 -19.23)"/></g></g><g id="Window-2" data-name="Window"><path class="cls-1" d="M352.06,72,119.35,206.22V377.73a3,3,0,0,0,4.45,2.58l4.15-2.39L347.72,251.2a9.59,9.59,0,0,0,4.34-7.51Z" transform="translate(-18.46 -19.23)"/><path class="cls-2" d="M351.06,73.76V243.69a8.62,8.62,0,0,1-3.84,6.64L127.45,377.05l-4.15,2.4a2,2,0,0,1-1,.26,2,2,0,0,1-1.38-.56,2,2,0,0,1-.6-1.42V206.8l230.71-133m1-1.74L119.35,206.22V377.73a3,3,0,0,0,3,3,2.86,2.86,0,0,0,1.47-.4l4.15-2.39L347.72,251.2a9.59,9.59,0,0,0,4.34-7.51V72Z" transform="translate(-18.46 -19.23)"/><polygon class="cls-11" points="328.08 49.61 95.36 183.8 100.89 187 333.6 52.8 328.08 49.61"/><path class="cls-12" d="M120.91,380.35a3,3,0,0,1-1.56-2.62V206.22L113.82,203V373.59c0,.21,0,.42,0,.63a4.59,4.59,0,0,0,2.27,3.36l4.57,2.65.22.12Z" transform="translate(-18.46 -19.23)"/><path class="cls-3" d="M113.82,203.1V191.53a4.8,4.8,0,0,1,2.16-3.76L344.38,56.1a4.76,4.76,0,0,1,4.33,0l1.19.68a4.8,4.8,0,0,1,2.16,3.75V72.11L119.35,206.29Z" transform="translate(-18.46 -19.23)"/><path class="cls-13" d="M113.82,203.1V191.53a4.8,4.8,0,0,1,2.16-3.76L344.38,56.1a4.76,4.76,0,0,1,4.33,0l1.19.68a4.8,4.8,0,0,1,2.16,3.75V72.11L119.35,206.29Z" transform="translate(-18.46 -19.23)"/><path class="cls-3" d="M119.35,194.72a4.83,4.83,0,0,1,2.16-3.76L349.9,59.28c1.2-.69,2.16-.14,2.16,1.24V72.11L119.35,206.29Z" transform="translate(-18.46 -19.23)"/><path class="cls-14" d="M119.35,194.72a4.83,4.83,0,0,1,2.16-3.76L349.9,59.28c1.2-.69,2.16-.14,2.16,1.24V72.11L119.35,206.29Z" transform="translate(-18.46 -19.23)"/><path class="cls-3" d="M120,192.59a4.47,4.47,0,0,0-.63,2.14V206.3l-5.53-3.19V191.53a4.43,4.43,0,0,1,.63-2.13Z" transform="translate(-18.46 -19.23)"/><path class="cls-15" d="M120,192.59a4.47,4.47,0,0,0-.63,2.14V206.3l-5.53-3.19V191.53a4.43,4.43,0,0,1,.63-2.13Z" transform="translate(-18.46 -19.23)"/><path class="cls-16" d="M341.91,71.59c0,1.29.91,1.82,2,1.17a4.49,4.49,0,0,0,2-3.52c0-1.29-.91-1.82-2-1.17A4.49,4.49,0,0,0,341.91,71.59Z" transform="translate(-18.46 -19.23)"/><path class="cls-16" d="M333.78,76.28c0,1.29.91,1.82,2,1.17a4.48,4.48,0,0,0,2-3.52c0-1.29-.91-1.82-2-1.17A4.49,4.49,0,0,0,333.78,76.28Z" transform="translate(-18.46 -19.23)"/><path class="cls-16" d="M325.66,81c0,1.29.91,1.82,2,1.17a4.49,4.49,0,0,0,2-3.52c0-1.29-.91-1.82-2-1.17A4.49,4.49,0,0,0,325.66,81Z" transform="translate(-18.46 -19.23)"/><path class="cls-16" d="M119.35,206.3V377.73a3,3,0,0,0,4.45,2.58l4.15-2.39L178.8,348.6V172L119.35,206.3Z" transform="translate(-18.46 -19.23)"/><polygon class="cls-16" points="164.4 155.69 164.4 322.2 328.72 227.33 328.72 60.82 164.4 155.69"/><path class="cls-3" d="M165.19,192.13l-37.92,21.92a2.8,2.8,0,0,0-1.27,2.2v3.95c0,.81.57,1.14,1.27.73L165.19,199a2.79,2.79,0,0,0,1.27-2.2v-3.95C166.47,192.06,165.9,191.73,165.19,192.13Z" transform="translate(-18.46 -19.23)"/><path class="cls-17" d="M165.19,192.13l-37.92,21.92a2.8,2.8,0,0,0-1.27,2.2v3.95c0,.81.57,1.14,1.27.73L165.19,199a2.79,2.79,0,0,0,1.27-2.2v-3.95C166.47,192.06,165.9,191.73,165.19,192.13Z" transform="translate(-18.46 -19.23)"/><path class="cls-8" d="M173.64,193.7l-1.12-1.07a5.06,5.06,0,0,0,.36-1.79,2.13,2.13,0,0,0-.84-1.92,1.33,1.33,0,0,0-1.36.06,4.48,4.48,0,0,0-1.76,3.63,2.12,2.12,0,0,0,.84,1.92,1.17,1.17,0,0,0,.6.16,1.47,1.47,0,0,0,.76-.22,2.94,2.94,0,0,0,1-1l.92.89a.42.42,0,0,0,.3.12.45.45,0,0,0,.32-.14A.44.44,0,0,0,173.64,193.7Zm-3,0a.48.48,0,0,1-.48.06c-.18-.11-.4-.47-.4-1.16a3.66,3.66,0,0,1,1.32-2.87.62.62,0,0,1,.32-.1.29.29,0,0,1,.16,0c.18.11.4.47.4,1.16A3.66,3.66,0,0,1,170.68,193.71Z" transform="translate(-18.46 -19.23)"/><path class="cls-8" d="M126.92,232.52l-.85.49s-.09,0-.09-.07v-2.3a.19.19,0,0,1,.09-.17l.85-.5s.09,0,.09.07v2.31A.22.22,0,0,1,126.92,232.52Z" transform="translate(-18.46 -19.23)"/><path class="cls-8" d="M128.2,231.78l-.85.49a.06.06,0,0,1-.1-.06V229.9a.23.23,0,0,1,.1-.17l.85-.49c.05,0,.09,0,.09.07v2.3A.21.21,0,0,1,128.2,231.78Z" transform="translate(-18.46 -19.23)"/><path class="cls-8" d="M129.47,231.05l-.85.49c-.05,0-.09,0-.09-.07v-2.3a.23.23,0,0,1,.09-.18l.85-.49c.05,0,.09,0,.09.07v2.3A.23.23,0,0,1,129.47,231.05Z" transform="translate(-18.46 -19.23)"/><path class="cls-8" d="M126.92,235.49l-.85.49s-.09,0-.09-.07v-2.3a.19.19,0,0,1,.09-.17l.85-.5s.09,0,.09.07v2.31A.22.22,0,0,1,126.92,235.49Z" transform="translate(-18.46 -19.23)"/><path class="cls-8" d="M128.2,234.75l-.85.49a.06.06,0,0,1-.1-.06v-2.31a.23.23,0,0,1,.1-.17l.85-.49c.05,0,.09,0,.09.07v2.3A.21.21,0,0,1,128.2,234.75Z" transform="translate(-18.46 -19.23)"/><path class="cls-8" d="M129.47,234l-.85.49c-.05,0-.09,0-.09-.07v-2.3a.23.23,0,0,1,.09-.18l.85-.49c.05,0,.09,0,.09.07v2.3A.23.23,0,0,1,129.47,234Z" transform="translate(-18.46 -19.23)"/><path class="cls-8" d="M127.06,243.34l-1-.64s0-.12,0-.19l1-1.85c0-.09.12-.07.12,0v2.48C127.18,243.27,127.11,243.37,127.06,243.34Z" transform="translate(-18.46 -19.23)"/><path class="cls-8" d="M126.62,241.93l1.37-.8v.66l-1.37.79c-.12.07-.22,0-.22-.2A.55.55,0,0,1,126.62,241.93Z" transform="translate(-18.46 -19.23)"/><polygon class="cls-8" points="109.79 221.75 110.26 221.48 110.26 222.14 109.79 222.41 109.79 221.75"/><path class="cls-8" d="M130,240.31v2.41a.56.56,0,0,1-.21.45c-.12.06-.21,0-.21-.21v-2.08l-.59.34v-.66l.8-.46C129.9,240,130,240.13,130,240.31Z" transform="translate(-18.46 -19.23)"/><path class="cls-8" d="M127.46,248.74a4.58,4.58,0,0,0-1.45,3.9c.17,1.25.92,1.21,1,1.79,0,.06,0,.08.09.06L128,254a.28.28,0,0,0,.09-.17c.1-.77,1.05-1.7,1.06-3.57C129.19,248.79,128.41,248.09,127.46,248.74Z" transform="translate(-18.46 -19.23)"/><path class="cls-8" d="M128,255.46l-.9.52c-.06,0-.11,0-.11-.08v-.83a.3.3,0,0,1,.11-.22l.9-.51c.06,0,.11,0,.11.08v.83A.26.26,0,0,1,128,255.46Z" transform="translate(-18.46 -19.23)"/><path class="cls-8" d="M127.68,229.29a5.43,5.43,0,0,0-1.63,3.45,3.59,3.59,0,0,0,.24,1.89L126,236.2c0,.13,0,.2.13.12l.9-1a1.41,1.41,0,0,0,1.32-.39,5.46,5.46,0,0,0,1.63-3.46C130.18,229.28,129,228.18,127.68,229.29Zm.33,5.15c-.84.48-1.52-.17-1.52-1.45a4,4,0,0,1,1.52-3.21c.83-.48,1.51.18,1.51,1.46A4,4,0,0,1,128,234.44Z" transform="translate(-18.46 -19.23)"/><path class="cls-8" d="M127.68,259.64a5.41,5.41,0,0,0-1.63,3.45,3.53,3.53,0,0,0,.24,1.88l-.31,1.58c0,.13,0,.19.13.11l.9-1a1.41,1.41,0,0,0,1.32-.39,5.46,5.46,0,0,0,1.63-3.46C130.18,259.63,129,258.53,127.68,259.64Zm.33,5.15c-.84.48-1.52-.17-1.52-1.46a4,4,0,0,1,1.52-3.2c.83-.48,1.51.17,1.51,1.46A4,4,0,0,1,128,264.79Z" transform="translate(-18.46 -19.23)"/><path class="cls-8" d="M129,270.76a2.13,2.13,0,0,1-.8,1.69c-.44.25-.8-.09-.8-.77a2.1,2.1,0,0,1,.8-1.69C128.6,269.73,129,270.08,129,270.76Z" transform="translate(-18.46 -19.23)"/><path class="cls-8" d="M130.33,271a1.4,1.4,0,0,1-.53,1.12c-.29.17-.53-.06-.53-.51a1.4,1.4,0,0,1,.53-1.12C130.09,270.32,130.33,270.54,130.33,271Z" transform="translate(-18.46 -19.23)"/><path class="cls-8" d="M129.1,275.6l-1.88,1.09V274.3a1.61,1.61,0,0,1,.68-1.3l.52-.3c.38-.22.68,0,.68.51Z" transform="translate(-18.46 -19.23)"/><path class="cls-8" d="M129.88,272.4l-.52.3v2.75l1-.57v-2.13C130.34,272.41,130.14,272.25,129.88,272.4Z" transform="translate(-18.46 -19.23)"/><path class="cls-8" d="M126,273.5c0,.45.24.68.53.51a1.38,1.38,0,0,0,.54-1.12c0-.45-.24-.68-.54-.51A1.4,1.4,0,0,0,126,273.5Z" transform="translate(-18.46 -19.23)"/><path class="cls-8" d="M126.44,274.39l.52-.3v2.75l-1,.56v-2.13A1.1,1.1,0,0,1,126.44,274.39Z" transform="translate(-18.46 -19.23)"/><path class="cls-2" d="M135.2,227.12l22.21-12.82c.6-.34,1.08-.1,1.08.55a2.32,2.32,0,0,1-1.08,1.8L135.2,229.47c-.59.34-1.08.1-1.08-.55A2.35,2.35,0,0,1,135.2,227.12Z" transform="translate(-18.46 -19.23)"/><path class="cls-2" d="M135.2,237.58l22.21-12.82c.6-.35,1.08-.1,1.08.54a2.31,2.31,0,0,1-1.08,1.8L135.2,239.92c-.59.35-1.08.1-1.08-.55A2.33,2.33,0,0,1,135.2,237.58Z" transform="translate(-18.46 -19.23)"/><path class="cls-2" d="M135.2,248l22.21-12.82c.6-.35,1.08-.1,1.08.55a2.3,2.3,0,0,1-1.08,1.79L135.2,250.37c-.59.35-1.08.1-1.08-.54A2.33,2.33,0,0,1,135.2,248Z" transform="translate(-18.46 -19.23)"/><path class="cls-2" d="M135.2,258.48l22.21-12.82c.6-.34,1.08-.1,1.08.55a2.32,2.32,0,0,1-1.08,1.8L135.2,260.83c-.59.34-1.08.1-1.08-.55A2.35,2.35,0,0,1,135.2,258.48Z" transform="translate(-18.46 -19.23)"/><path class="cls-2" d="M135.2,268.94l22.21-12.83c.6-.34,1.08-.1,1.08.55a2.32,2.32,0,0,1-1.08,1.8L135.2,271.28c-.59.35-1.08.1-1.08-.55A2.33,2.33,0,0,1,135.2,268.94Z" transform="translate(-18.46 -19.23)"/><path class="cls-8" d="M139.27,277.47l22.2-12.82c.6-.35,1.09-.1,1.09.55a2.31,2.31,0,0,1-1.09,1.79l-22.2,12.83c-.6.34-1.09.1-1.09-.55A2.33,2.33,0,0,1,139.27,277.47Z" transform="translate(-18.46 -19.23)"/><path class="cls-2" d="M139.27,284.53l22.2-12.82c.6-.35,1.09-.1,1.09.55a2.33,2.33,0,0,1-1.09,1.8l-22.2,12.82c-.6.34-1.09.1-1.09-.55A2.33,2.33,0,0,1,139.27,284.53Z" transform="translate(-18.46 -19.23)"/><path class="cls-2" d="M139.27,291.59l22.2-12.82c.6-.34,1.09-.1,1.09.55a2.33,2.33,0,0,1-1.09,1.8l-22.2,12.82c-.6.34-1.09.1-1.09-.55A2.33,2.33,0,0,1,139.27,291.59Z" transform="translate(-18.46 -19.23)"/><path class="cls-2" d="M143.59,296.08l22.21-12.82c.59-.35,1.08-.1,1.08.55a2.33,2.33,0,0,1-1.08,1.79l-22.21,12.83c-.6.34-1.08.1-1.08-.55A2.32,2.32,0,0,1,143.59,296.08Z" transform="translate(-18.46 -19.23)"/><path class="cls-8" d="M138.4,302.16l1.8-3.19c.07-.12.07-.28,0-.32l-1.8-1.1c-.09-.05-.22.12-.22.29v4.28C138.18,302.29,138.31,302.31,138.4,302.16Z" transform="translate(-18.46 -19.23)"/><path class="cls-2" d="M143.59,303.12,165.8,290.3c.59-.35,1.08-.1,1.08.54a2.33,2.33,0,0,1-1.08,1.8l-22.21,12.82c-.6.35-1.08.1-1.08-.55A2.3,2.3,0,0,1,143.59,303.12Z" transform="translate(-18.46 -19.23)"/><path class="cls-8" d="M138.4,309.19l1.8-3.18c.07-.12.07-.28,0-.32l-1.8-1.1c-.09-.06-.22.11-.22.28v4.28C138.18,309.32,138.31,309.35,138.4,309.19Z" transform="translate(-18.46 -19.23)"/><path class="cls-2" d="M143.59,310.15l22.21-12.82c.59-.34,1.08-.1,1.08.55a2.35,2.35,0,0,1-1.08,1.8L143.59,312.5c-.6.34-1.08.1-1.08-.55A2.32,2.32,0,0,1,143.59,310.15Z" transform="translate(-18.46 -19.23)"/><path class="cls-8" d="M138.4,316.23l1.8-3.18c.07-.12.07-.28,0-.33l-1.8-1.1c-.09-.05-.22.12-.22.29v4.28C138.18,316.36,138.31,316.38,138.4,316.23Z" transform="translate(-18.46 -19.23)"/><path class="cls-2" d="M143.59,317.19l22.21-12.82c.59-.35,1.08-.1,1.08.55a2.33,2.33,0,0,1-1.08,1.79l-22.21,12.83c-.6.34-1.08.1-1.08-.55A2.32,2.32,0,0,1,143.59,317.19Z" transform="translate(-18.46 -19.23)"/><path class="cls-8" d="M138.4,323.27l1.8-3.19c.07-.12.07-.28,0-.32l-1.8-1.1c-.09-.05-.22.12-.22.29v4.28C138.18,323.4,138.31,323.42,138.4,323.27Z" transform="translate(-18.46 -19.23)"/><path class="cls-2" d="M143.59,324.23l22.21-12.82c.59-.35,1.08-.1,1.08.54a2.33,2.33,0,0,1-1.08,1.8l-22.21,12.82c-.6.35-1.08.1-1.08-.55A2.3,2.3,0,0,1,143.59,324.23Z" transform="translate(-18.46 -19.23)"/><path class="cls-8" d="M138.4,330.3l1.8-3.18c.07-.12.07-.28,0-.32l-1.8-1.1c-.09-.06-.22.11-.22.28v4.28C138.18,330.43,138.31,330.46,138.4,330.3Z" transform="translate(-18.46 -19.23)"/><path class="cls-2" d="M143.59,331.26l22.21-12.82c.59-.34,1.08-.1,1.08.55a2.35,2.35,0,0,1-1.08,1.8l-22.21,12.82c-.6.34-1.08.1-1.08-.55A2.32,2.32,0,0,1,143.59,331.26Z" transform="translate(-18.46 -19.23)"/><path class="cls-8" d="M138.4,337.34l1.8-3.18c.07-.13.07-.28,0-.33l-1.8-1.1c-.09-.05-.22.12-.22.29v4.28C138.18,337.47,138.31,337.49,138.4,337.34Z" transform="translate(-18.46 -19.23)"/><path class="cls-2" d="M143.59,338.3l22.21-12.82c.59-.35,1.08-.1,1.08.55a2.33,2.33,0,0,1-1.08,1.79l-22.21,12.82c-.6.35-1.08.1-1.08-.54A2.31,2.31,0,0,1,143.59,338.3Z" transform="translate(-18.46 -19.23)"/><path class="cls-8" d="M138.4,344.37l1.8-3.18c.07-.12.07-.28,0-.32l-1.8-1.1c-.09,0-.22.12-.22.28v4.29C138.18,344.51,138.31,344.53,138.4,344.37Z" transform="translate(-18.46 -19.23)"/><path class="cls-2" d="M143.59,345.34l22.21-12.83c.59-.34,1.08-.1,1.08.55a2.35,2.35,0,0,1-1.08,1.8l-22.21,12.82c-.6.35-1.08.1-1.08-.55A2.3,2.3,0,0,1,143.59,345.34Z" transform="translate(-18.46 -19.23)"/><path class="cls-8" d="M138.4,351.41l1.8-3.18c.07-.12.07-.28,0-.32l-1.8-1.1c-.09-.06-.22.11-.22.28v4.28C138.18,351.54,138.31,351.57,138.4,351.41Z" transform="translate(-18.46 -19.23)"/><path class="cls-1" d="M188,197.75l73-42.14a2.4,2.4,0,0,0,1.08-1.88V135.12c0-.69-.48-1-1.08-.62l-73,42.13a2.4,2.4,0,0,0-1.08,1.88v18.61C186.93,197.81,187.41,198.09,188,197.75Z" transform="translate(-18.46 -19.23)"/><path class="cls-8" d="M194.38,184.61v0l.48-2-.66.38s0,0,0,0a.08.08,0,0,1,0-.06v-.36a.19.19,0,0,1,0-.07.07.07,0,0,1,0-.05l1.06-.62s0,0,0,0a.08.08,0,0,1,0,0v.32a.63.63,0,0,1,0,.19l-.48,2a.25.25,0,0,1,0,.07.1.1,0,0,1,0,.05l-.31.18h0S194.38,184.64,194.38,184.61Z" transform="translate(-18.46 -19.23)"/><path class="cls-8" d="M196.15,181.25a.44.44,0,0,1,.28-.09.25.25,0,0,1,.2.09.57.57,0,0,1,.12.22,1.66,1.66,0,0,1,0,.33c0,.1,0,.2,0,.31s0,.2,0,.3a2.58,2.58,0,0,1,0,.38,1.9,1.9,0,0,1-.12.36,1.23,1.23,0,0,1-.48.56.67.67,0,0,1-.29.09.29.29,0,0,1-.2-.09.55.55,0,0,1-.12-.23,1.47,1.47,0,0,1,0-.32,2.91,2.91,0,0,1,0-.3c0-.11,0-.21,0-.31a2.45,2.45,0,0,1,0-.38,1.9,1.9,0,0,1,.12-.36,1.16,1.16,0,0,1,.2-.32A.85.85,0,0,1,196.15,181.25Zm.23,1.38a5.61,5.61,0,0,0,0-.58c0-.05,0-.1,0-.14a.28.28,0,0,0,0-.11.1.1,0,0,0-.07,0,.19.19,0,0,0-.11,0,.27.27,0,0,0-.12.09.75.75,0,0,0-.07.12c0,.05,0,.1,0,.15s0,.11,0,.17a5.42,5.42,0,0,0,0,.57.66.66,0,0,0,0,.15.23.23,0,0,0,0,.1.12.12,0,0,0,.07,0,.24.24,0,0,0,.12,0,.48.48,0,0,0,.11-.09.65.65,0,0,0,.11-.28A.81.81,0,0,0,196.38,182.63Z" transform="translate(-18.46 -19.23)"/><path class="cls-8" d="M197.68,180.86v.26a1.49,1.49,0,0,1,0,.21,1.46,1.46,0,0,1-.07.19.62.62,0,0,1-.11.17.61.61,0,0,1-.15.12.37.37,0,0,1-.15.05.15.15,0,0,1-.1,0,.35.35,0,0,1-.07-.12l0-.17v-.26l0-.21a1.46,1.46,0,0,1,.07-.19.59.59,0,0,1,.1-.17.44.44,0,0,1,.15-.12.37.37,0,0,1,.15-.05.18.18,0,0,1,.11,0,.23.23,0,0,1,.06.12A.47.47,0,0,1,197.68,180.86Zm.56-.72,0-.07,0,0,.19-.11h0s0,0,0,0v0a0,0,0,0,1,0,0l-1.09,2.85a.43.43,0,0,1,0,.07l0,0-.19.1s0,0,0,0,0,0,0,0v0s0,0,0,0Zm-1,1.22a.17.17,0,0,0,0,.12s0,0,.06,0a.13.13,0,0,0,.07-.09.46.46,0,0,0,0-.14.88.88,0,0,0,0-.23.29.29,0,0,0,0-.12s0,0-.07,0a.15.15,0,0,0-.06.09.29.29,0,0,0,0,.14Zm1.47.11a1.13,1.13,0,0,1,0,.26.69.69,0,0,1,0,.2.6.6,0,0,1-.06.19.62.62,0,0,1-.11.17.44.44,0,0,1-.15.12.37.37,0,0,1-.15.05.15.15,0,0,1-.11,0l-.06-.12,0-.17v-.26l0-.21.06-.19a.91.91,0,0,1,.11-.16.47.47,0,0,1,.15-.13.37.37,0,0,1,.15-.05.18.18,0,0,1,.11,0,.23.23,0,0,1,.06.12A.48.48,0,0,1,198.71,181.47Zm-.44.49a.17.17,0,0,0,0,.12s0,0,.06,0a.16.16,0,0,0,.07-.09.46.46,0,0,0,0-.14.88.88,0,0,0,0-.23.29.29,0,0,0,0-.12s0,0-.07,0a.1.1,0,0,0-.06.08.33.33,0,0,0,0,.15Z" transform="translate(-18.46 -19.23)"/><path class="cls-8" d="M194.36,178.88l-.73-1.13a14.77,14.77,0,0,0-1.73,4.67l1.18-.09A11.13,11.13,0,0,1,194.36,178.88Z" transform="translate(-18.46 -19.23)"/><path class="cls-8" d="M196.43,176.65v-1.92a8.41,8.41,0,0,0-2.8,3l.73,1.13A6.08,6.08,0,0,1,196.43,176.65Z" transform="translate(-18.46 -19.23)"/><path class="cls-8" d="M192.91,184.1a9.73,9.73,0,0,1,.17-1.77l-1.18.09a13.09,13.09,0,0,0-.23,2.4,9.15,9.15,0,0,0,.23,2.13l1.18-1.27A6.89,6.89,0,0,1,192.91,184.1Z" transform="translate(-18.46 -19.23)"/><path class="cls-3" d="M201,177.18a3.88,3.88,0,0,0-1.73-2.66,2.78,2.78,0,0,0-2.8.21v1.92a2.06,2.06,0,0,1,2.07-.16,2.94,2.94,0,0,1,1.28,2A6.83,6.83,0,0,1,200,180a9.73,9.73,0,0,1-.17,1.77,11,11,0,0,1-1.28,3.45,6.16,6.16,0,0,1-2.07,2.23,2,2,0,0,1-2.07.15,2.93,2.93,0,0,1-1.28-2L191.9,187a3.94,3.94,0,0,0,1.73,2.67,2.78,2.78,0,0,0,2.8-.21,8.32,8.32,0,0,0,2.8-3,14.53,14.53,0,0,0,1.73-4.67,13.11,13.11,0,0,0,.24-2.4A9.27,9.27,0,0,0,201,177.18Z" transform="translate(-18.46 -19.23)"/><path class="cls-8" d="M208.32,171.94l22.21-12.82c.6-.35,1.08-.1,1.08.55a2.3,2.3,0,0,1-1.08,1.79l-22.21,12.83c-.6.34-1.08.1-1.08-.55A2.32,2.32,0,0,1,208.32,171.94Z" transform="translate(-18.46 -19.23)"/><path class="cls-2" d="M208.32,176.67l38.46-22.2c.59-.34,1.08-.1,1.08.55a2.35,2.35,0,0,1-1.08,1.8L208.32,179c-.6.35-1.08.1-1.08-.54A2.31,2.31,0,0,1,208.32,176.67Z" transform="translate(-18.46 -19.23)"/><path class="cls-1" d="M267.21,152l73-42.14a2.41,2.41,0,0,0,1.09-1.88V89.39c0-.69-.49-1-1.09-.63l-73,42.14a2.39,2.39,0,0,0-1.08,1.87v18.62C266.13,152.08,266.62,152.36,267.21,152Z" transform="translate(-18.46 -19.23)"/><path class="cls-8" d="M273.94,137.17a1.31,1.31,0,0,1,.05-.39,1.67,1.67,0,0,1,.36-.64.72.72,0,0,1,.24-.19.46.46,0,0,1,.24-.08.3.3,0,0,1,.21,0,.35.35,0,0,1,.14.19.73.73,0,0,1,.06.32,1.11,1.11,0,0,1,0,.19,1.16,1.16,0,0,1,0,.18.84.84,0,0,1-.05.17l-.06.16-.42,1.15,0,0a.12.12,0,0,1-.05.05l-.35.21s0,0,0,0,0,0,0,0v0s0,0,0,0l.28-.78a.76.76,0,0,1-.21,0,.3.3,0,0,1-.17-.08.41.41,0,0,1-.12-.18A.87.87,0,0,1,273.94,137.17Zm.89-.51a.31.31,0,0,0,0-.11.22.22,0,0,0-.06-.07l-.07,0a.32.32,0,0,0-.09,0l-.09.08a.39.39,0,0,0-.08.1.5.5,0,0,0-.05.13.32.32,0,0,0,0,.14.2.2,0,0,0,0,.11.1.1,0,0,0,.05.06.11.11,0,0,0,.08,0,.16.16,0,0,0,.09,0l.09-.07.07-.11.06-.12A.78.78,0,0,0,274.83,136.66Z" transform="translate(-18.46 -19.23)"/><path class="cls-8" d="M276.07,135.09a.53.53,0,0,1,.29-.09.27.27,0,0,1,.2.09.46.46,0,0,1,.11.22,1.63,1.63,0,0,1,.05.33v.61a2.47,2.47,0,0,1-.05.38,1.37,1.37,0,0,1-.11.36,1.73,1.73,0,0,1-.2.32,1.37,1.37,0,0,1-.29.24.6.6,0,0,1-.29.09.25.25,0,0,1-.19-.09.39.39,0,0,1-.12-.23,1.43,1.43,0,0,1-.05-.32v-.61a2.47,2.47,0,0,1,.05-.38,1.09,1.09,0,0,1,.12-.36,1.69,1.69,0,0,1,.19-.32A1.09,1.09,0,0,1,276.07,135.09Zm.24,1.38v-.57a.61.61,0,0,0,0-.15.19.19,0,0,0,0-.1s0,0-.07-.05a.21.21,0,0,0-.11,0,.31.31,0,0,0-.11.09.54.54,0,0,0-.07.13.57.57,0,0,0,0,.14c0,.06,0,.11,0,.17v.57c0,.06,0,.11,0,.15a.19.19,0,0,0,0,.1.12.12,0,0,0,.07,0,.19.19,0,0,0,.11,0,.24.24,0,0,0,.11-.09.65.65,0,0,0,.11-.28A.78.78,0,0,0,276.31,136.47Z" transform="translate(-18.46 -19.23)"/><path class="cls-8" d="M277.61,134.7V135a1.52,1.52,0,0,1,0,.21.6.6,0,0,1-.06.19,1,1,0,0,1-.11.17.44.44,0,0,1-.15.12.37.37,0,0,1-.15,0,.14.14,0,0,1-.11,0,.23.23,0,0,1-.06-.12.47.47,0,0,1,0-.17v-.26a.76.76,0,0,1,0-.21.7.7,0,0,1,.06-.19.57.57,0,0,1,.11-.16.47.47,0,0,1,.15-.13.37.37,0,0,1,.15,0,.21.21,0,0,1,.11,0,.67.67,0,0,1,.06.12A.86.86,0,0,1,277.61,134.7Zm.55-.72,0-.06.05,0,.18-.1h0a.05.05,0,0,1,0,0v0l-1.1,2.85,0,.07,0,0-.18.11s0,0,0,0,0,0,0,0v0s0,0,0,0Zm-1,1.22a.29.29,0,0,0,0,.12,0,0,0,0,0,.07,0,.22.22,0,0,0,.07-.09.46.46,0,0,0,0-.14v-.23a.29.29,0,0,0,0-.12s0,0-.07,0a.11.11,0,0,0-.07.08.54.54,0,0,0,0,.15A.81.81,0,0,0,277.17,135.2Zm1.47.11v.26l0,.2a1.06,1.06,0,0,1-.06.19,1,1,0,0,1-.11.17.44.44,0,0,1-.15.12.26.26,0,0,1-.15.05.14.14,0,0,1-.11,0,.23.23,0,0,1-.06-.12.43.43,0,0,1,0-.17c0-.05,0-.09,0-.13s0-.08,0-.13a.76.76,0,0,1,0-.21.7.7,0,0,1,.06-.19.57.57,0,0,1,.11-.16.64.64,0,0,1,.15-.13.37.37,0,0,1,.15-.05.16.16,0,0,1,.11.05.23.23,0,0,1,.06.11Zm-.44.49a.29.29,0,0,0,0,.12,0,0,0,0,0,.07,0,.22.22,0,0,0,.07-.09.46.46,0,0,0,0-.14v-.23a.29.29,0,0,0,0-.12s0,0-.07,0a.14.14,0,0,0-.07.08.61.61,0,0,0,0,.15A.81.81,0,0,0,278.2,135.8Z" transform="translate(-18.46 -19.23)"/><path class="cls-8" d="M276.29,130.53v-1.92a8.33,8.33,0,0,0-2.8,3l.74,1.13A6.06,6.06,0,0,1,276.29,130.53Z" transform="translate(-18.46 -19.23)"/><path class="cls-3" d="M280.82,131.06a3.88,3.88,0,0,0-1.73-2.66,2.78,2.78,0,0,0-2.8.21v1.92a2.06,2.06,0,0,1,2.07-.16,2.9,2.9,0,0,1,1.28,2,6.8,6.8,0,0,1,.17,1.57,9.75,9.75,0,0,1-.17,1.78,10.68,10.68,0,0,1-1.28,3.44,6.11,6.11,0,0,1-2.07,2.24,2,2,0,0,1-2.06.15,2.9,2.9,0,0,1-1.29-2,6.8,6.8,0,0,1-.17-1.57,9.73,9.73,0,0,1,.17-1.77,10.9,10.9,0,0,1,1.29-3.45l-.74-1.13a14.68,14.68,0,0,0-1.73,4.67,13.09,13.09,0,0,0-.23,2.4,9.21,9.21,0,0,0,.23,2.13,3.94,3.94,0,0,0,1.73,2.67,2.76,2.76,0,0,0,2.8-.22,8.16,8.16,0,0,0,2.8-3h0a14.39,14.39,0,0,0,1.73-4.66,12.29,12.29,0,0,0,.24-2.4A8.7,8.7,0,0,0,280.82,131.06Z" transform="translate(-18.46 -19.23)"/><path class="cls-8" d="M288.16,125.82,310.37,113c.6-.35,1.08-.1,1.08.55a2.3,2.3,0,0,1-1.08,1.79l-22.21,12.82c-.59.35-1.08.1-1.08-.54A2.33,2.33,0,0,1,288.16,125.82Z" transform="translate(-18.46 -19.23)"/><path class="cls-2" d="M288.16,130.55l38.46-22.2c.6-.34,1.08-.1,1.08.55a2.32,2.32,0,0,1-1.08,1.8l-38.46,22.19c-.59.35-1.08.1-1.08-.55A2.33,2.33,0,0,1,288.16,130.55Z" transform="translate(-18.46 -19.23)"/><path class="cls-8" d="M195.45,202.85l15.57-9c.6-.35,1.09-.1,1.09.55a2.31,2.31,0,0,1-1.09,1.79l-15.57,9c-.6.35-1.09.1-1.09-.54A2.32,2.32,0,0,1,195.45,202.85Z" transform="translate(-18.46 -19.23)"/><path class="cls-2" d="M340.74,124.79h0m-.45.26V244a1.44,1.44,0,0,1-.59,1L187.93,332.65v-119a1.39,1.39,0,0,1,.58-1l1.9-1.1a3.4,3.4,0,0,0,1.58-2.74V202a1.41,1.41,0,0,1,.58-1l21.79-12.58v6.4a1.64,1.64,0,0,0,1.6,1.77,2,2,0,0,0,1-.28l123.34-71.21M214.82,188.11h0m125.87-64.32a1,1,0,0,0-.49.15L216.45,195.39a1,1,0,0,1-.49.15c-.35,0-.6-.28-.6-.77v-6.88c0-.49-.24-.78-.6-.78a1,1,0,0,0-.48.15l-22.21,12.82A2.43,2.43,0,0,0,191,202v6.88a2.37,2.37,0,0,1-1.08,1.87l-1.9,1.1a2.37,2.37,0,0,0-1.08,1.87V333.14c0,.49.24.77.6.77a1,1,0,0,0,.48-.15L340.2,245.89a2.38,2.38,0,0,0,1.09-1.87V124.57c0-.49-.25-.78-.6-.78Z" transform="translate(-18.46 -19.23)"/><path class="cls-2" d="M196.71,218.88a1.08,1.08,0,0,1-.53-.14,1.25,1.25,0,0,1-.56-1.14v-4.53a2.9,2.9,0,0,1,1.33-2.31l12.07-7a1.27,1.27,0,0,1,1.27-.07,1.24,1.24,0,0,1,.56,1.13v4.54a2.88,2.88,0,0,1-1.33,2.3l-12.07,7A1.43,1.43,0,0,1,196.71,218.88Zm.74-7.25a1.9,1.9,0,0,0-.83,1.44v4.53c0,.18,0,.26.06.27a.41.41,0,0,0,.27-.07l12.07-7a1.91,1.91,0,0,0,.83-1.44v-4.54c0-.17,0-.25-.07-.27s-.11,0-.26.08Z" transform="translate(-18.46 -19.23)"/><path class="cls-2" d="M198.17,213.5l7.86-4.57c.4-.23.72-.07.72.37a1.53,1.53,0,0,1-.72,1.19l-7.86,4.57c-.4.23-.72.07-.72-.37A1.53,1.53,0,0,1,198.17,213.5Z" transform="translate(-18.46 -19.23)"/><path class="cls-8" d="M207.86,208.18l.65.93s.08,0,.1-.06l.66-1.68c0-.08,0-.15-.05-.12l-1.31.75A.16.16,0,0,0,207.86,208.18Z" transform="translate(-18.46 -19.23)"/><path class="cls-3" d="M195.05,262.82c.58-.33,1-.06,1,.61a2.29,2.29,0,0,1-1,1.8c-.57.34-1,.07-1-.6A2.34,2.34,0,0,1,195.05,262.82Z" transform="translate(-18.46 -19.23)"/><path class="cls-3" d="M203.18,253.44c.57-.33,1-.06,1,.61a2.31,2.31,0,0,1-1,1.8c-.58.34-1.05.07-1.05-.6A2.33,2.33,0,0,1,203.18,253.44Z" transform="translate(-18.46 -19.23)"/><path class="cls-3" d="M211.3,248.75c.58-.33,1-.06,1,.61a2.28,2.28,0,0,1-1,1.8c-.58.34-1,.07-1-.6A2.3,2.3,0,0,1,211.3,248.75Z" transform="translate(-18.46 -19.23)"/><path class="cls-3" d="M219.43,246.12c.57-.33,1-.06,1,.6a2.31,2.31,0,0,1-1,1.81c-.58.34-1.05.07-1.05-.6A2.3,2.3,0,0,1,219.43,246.12Z" transform="translate(-18.46 -19.23)"/><path class="cls-3" d="M227.56,237.68c.57-.34,1-.07,1,.6a2.34,2.34,0,0,1-1,1.81c-.58.33-1.05.06-1.05-.61A2.29,2.29,0,0,1,227.56,237.68Z" transform="translate(-18.46 -19.23)"/><path class="cls-3" d="M235.67,234.68c.58-.33,1.05-.06,1.05.6a2.3,2.3,0,0,1-1.05,1.81c-.57.33-1,.06-1-.6A2.31,2.31,0,0,1,235.67,234.68Z" transform="translate(-18.46 -19.23)"/><path class="cls-3" d="M243.8,225.3c.57-.33,1-.06,1,.6a2.31,2.31,0,0,1-1,1.81c-.58.33-1.05.06-1.05-.6A2.3,2.3,0,0,1,243.8,225.3Z" transform="translate(-18.46 -19.23)"/><path class="cls-3" d="M251.92,223c.58-.33,1.05-.06,1.05.61a2.33,2.33,0,0,1-1.05,1.81c-.58.33-1,.06-1-.61A2.32,2.32,0,0,1,251.92,223Z" transform="translate(-18.46 -19.23)"/><path class="cls-3" d="M260.05,197.16c.57-.34,1-.07,1,.6a2.31,2.31,0,0,1-1,1.81c-.58.33-1.05.06-1.05-.6A2.3,2.3,0,0,1,260.05,197.16Z" transform="translate(-18.46 -19.23)"/><path class="cls-3" d="M268.17,211.23c.58-.33,1-.06,1,.6a2.29,2.29,0,0,1-1,1.81c-.58.33-1,.06-1-.6A2.29,2.29,0,0,1,268.17,211.23Z" transform="translate(-18.46 -19.23)"/><path class="cls-3" d="M276.29,211.23c.58-.33,1-.06,1,.6a2.3,2.3,0,0,1-1,1.81c-.57.33-1,.06-1-.6A2.31,2.31,0,0,1,276.29,211.23Z" transform="translate(-18.46 -19.23)"/><path class="cls-3" d="M284.42,211.23c.57-.33,1-.06,1,.6a2.31,2.31,0,0,1-1,1.81c-.58.33-1.05.06-1.05-.6A2.3,2.3,0,0,1,284.42,211.23Z" transform="translate(-18.46 -19.23)"/><path class="cls-3" d="M292.54,197.16c.58-.34,1-.07,1,.6a2.3,2.3,0,0,1-1,1.81c-.58.33-1,.06-1-.6A2.29,2.29,0,0,1,292.54,197.16Z" transform="translate(-18.46 -19.23)"/><path class="cls-3" d="M300.67,194.46c.57-.33,1-.06,1,.6a2.31,2.31,0,0,1-1,1.81c-.58.34-1.05.07-1.05-.6A2.3,2.3,0,0,1,300.67,194.46Z" transform="translate(-18.46 -19.23)"/><path class="cls-3" d="M308.82,183.09c.57-.34,1-.07,1,.6a2.34,2.34,0,0,1-1,1.81c-.58.33-1.05.06-1.05-.61A2.29,2.29,0,0,1,308.82,183.09Z" transform="translate(-18.46 -19.23)"/><ellipse class="cls-3" cx="316.91" cy="184.29" rx="1.48" ry="0.85" transform="translate(-19.6 347.39) rotate(-60)"/><ellipse class="cls-3" cx="325.04" cy="184.29" rx="1.48" ry="0.85" transform="translate(-15.54 354.43) rotate(-60)"/><path class="cls-3" d="M333.16,178.4c.58-.34,1-.07,1,.6a2.33,2.33,0,0,1-1,1.81c-.57.33-1,.06-1-.61A2.31,2.31,0,0,1,333.16,178.4Z" transform="translate(-18.46 -19.23)"/><path class="cls-3" d="M195,264.29a.23.23,0,0,1-.16-.06.24.24,0,0,1,0-.35l8.21-9.43a.15.15,0,0,1,.06,0l8.07-4.66,8.11-2.63,8.08-8.4a.18.18,0,0,1,.09-.06l8.07-3,8.08-9.33a.25.25,0,0,1,.12-.08l8-2.3,8.09-25.67a.26.26,0,0,1,.21-.18.25.25,0,0,1,.24.13l8.05,13.94h16l8.05-13.94a.25.25,0,0,1,.14-.11l8.05-2.67,8.08-11.31a.23.23,0,0,1,.2-.11H325l8.07-4.66a.25.25,0,0,1,.34.1.25.25,0,0,1-.09.34l-8.13,4.69a.27.27,0,0,1-.12,0H308.92l-8.05,11.27a.2.2,0,0,1-.13.09l-8,2.67-8.08,14a.22.22,0,0,1-.21.12H268.17a.25.25,0,0,1-.22-.12L260.11,199l-8,25.26a.27.27,0,0,1-.17.16l-8.05,2.32-8.08,9.33a.23.23,0,0,1-.1.07l-8.07,3-8.09,8.4a.17.17,0,0,1-.1.06l-8.12,2.64-8,4.61-8.18,9.4A.27.27,0,0,1,195,264.29Z" transform="translate(-18.46 -19.23)"/><path class="cls-2" d="M195.05,269.22a.5.5,0,0,1-.25-.93l138.11-79.74a.49.49,0,0,1,.68.18.51.51,0,0,1-.18.69L195.3,269.15A.45.45,0,0,1,195.05,269.22Z" transform="translate(-18.46 -19.23)"/><path class="cls-3" d="M195.05,258.13c.58-.33,1-.06,1,.61a2.29,2.29,0,0,1-1,1.8c-.57.34-1,.07-1-.6A2.34,2.34,0,0,1,195.05,258.13Z" transform="translate(-18.46 -19.23)"/><path class="cls-3" d="M203.18,244.06c.57-.33,1-.06,1,.6a2.31,2.31,0,0,1-1,1.81c-.58.34-1.05.07-1.05-.6A2.3,2.3,0,0,1,203.18,244.06Z" transform="translate(-18.46 -19.23)"/><ellipse class="cls-3" cx="211.3" cy="243.51" rx="1.48" ry="0.85" transform="translate(-123.7 285.54) rotate(-60)"/><path class="cls-3" d="M219.42,225.3c.58-.33,1.05-.06,1.05.6a2.3,2.3,0,0,1-1.05,1.81c-.57.33-1,.06-1-.6A2.31,2.31,0,0,1,219.42,225.3Z" transform="translate(-18.46 -19.23)"/><path class="cls-3" d="M227.56,230c.57-.33,1-.06,1,.6a2.31,2.31,0,0,1-1,1.81c-.58.33-1.05.06-1.05-.6A2.3,2.3,0,0,1,227.56,230Z" transform="translate(-18.46 -19.23)"/><path class="cls-3" d="M235.67,227.65c.58-.34,1.05-.07,1.05.6a2.33,2.33,0,0,1-1.05,1.81c-.57.33-1,.06-1-.61A2.31,2.31,0,0,1,235.67,227.65Z" transform="translate(-18.46 -19.23)"/><path class="cls-3" d="M243.8,220.61c.57-.33,1-.06,1,.6a2.31,2.31,0,0,1-1,1.81c-.58.33-1.05.06-1.05-.6A2.3,2.3,0,0,1,243.8,220.61Z" transform="translate(-18.46 -19.23)"/><path class="cls-3" d="M251.92,211.23c.58-.33,1-.06,1,.6a2.29,2.29,0,0,1-1,1.81c-.58.33-1,.06-1-.6A2.29,2.29,0,0,1,251.92,211.23Z" transform="translate(-18.46 -19.23)"/><path class="cls-3" d="M260.05,208.88c.57-.33,1-.06,1,.61a2.31,2.31,0,0,1-1,1.8c-.58.34-1.05.07-1.05-.6A2.33,2.33,0,0,1,260.05,208.88Z" transform="translate(-18.46 -19.23)"/><path class="cls-3" d="M268.17,201.85c.58-.33,1-.07,1,.6a2.29,2.29,0,0,1-1,1.81c-.58.33-1,.06-1-.6A2.29,2.29,0,0,1,268.17,201.85Z" transform="translate(-18.46 -19.23)"/><path class="cls-3" d="M276.29,201.85c.58-.33,1-.06,1,.6a2.3,2.3,0,0,1-1,1.81c-.57.33-1,.06-1-.6A2.31,2.31,0,0,1,276.29,201.85Z" transform="translate(-18.46 -19.23)"/><path class="cls-3" d="M284.42,183.09c.57-.34,1-.07,1,.6a2.34,2.34,0,0,1-1,1.81c-.58.33-1.05.06-1.05-.61A2.29,2.29,0,0,1,284.42,183.09Z" transform="translate(-18.46 -19.23)"/><path class="cls-3" d="M292.54,192.4c.58-.33,1-.06,1,.6a2.3,2.3,0,0,1-1,1.81c-.57.33-1,.06-1-.6A2.29,2.29,0,0,1,292.54,192.4Z" transform="translate(-18.46 -19.23)"/><path class="cls-3" d="M300.67,183.09c.57-.34,1-.07,1,.6a2.34,2.34,0,0,1-1,1.81c-.58.33-1.05.06-1.05-.61A2.29,2.29,0,0,1,300.67,183.09Z" transform="translate(-18.46 -19.23)"/><path class="cls-3" d="M308.79,178.4c.58-.34,1-.07,1,.6a2.32,2.32,0,0,1-1,1.81c-.58.33-1,.06-1-.61A2.28,2.28,0,0,1,308.79,178.4Z" transform="translate(-18.46 -19.23)"/><path class="cls-3" d="M316.91,178.4c.58-.34,1-.07,1,.6a2.33,2.33,0,0,1-1,1.81c-.57.33-1,.06-1-.61A2.31,2.31,0,0,1,316.91,178.4Z" transform="translate(-18.46 -19.23)"/><path class="cls-3" d="M325,173.71c.57-.34,1-.07,1,.6a2.34,2.34,0,0,1-1,1.81c-.58.33-1.05.06-1.05-.61A2.29,2.29,0,0,1,325,173.71Z" transform="translate(-18.46 -19.23)"/><path class="cls-3" d="M333.16,173.71c.58-.34,1-.07,1,.6a2.33,2.33,0,0,1-1,1.81c-.57.33-1,.06-1-.61A2.31,2.31,0,0,1,333.16,173.71Z" transform="translate(-18.46 -19.23)"/><path class="cls-3" d="M195.05,259.59a.19.19,0,0,1-.12,0,.24.24,0,0,1-.09-.34l8.18-14.1a.22.22,0,0,1,.16-.12l7.95-1.7,8.07-16.89a.22.22,0,0,1,.15-.13.23.23,0,0,1,.2,0l8,4.64,8-2.3,8.07-7,8.11-9.36a.25.25,0,0,1,.12-.08l8.07-2.33,8.09-7a.23.23,0,0,1,.16-.06h8l8.06-18.61a.25.25,0,0,1,.19-.15.26.26,0,0,1,.23.09l7.93,9.16,7.94-9.16a.15.15,0,0,1,.06,0l8.15-4.71a.28.28,0,0,1,.13,0h8.05l8-4.64a.28.28,0,0,1,.13,0h8.12a.25.25,0,0,1,0,.5H325.1l-8,4.64a.28.28,0,0,1-.13,0h-8.05l-8.06,4.66-8.1,9.35a.26.26,0,0,1-.38,0l-7.86-9.08-8,18.39a.25.25,0,0,1-.23.15h-8l-8.05,7-.1.05-8.05,2.32L244,222,235.84,229a.31.31,0,0,1-.1.05l-8.11,2.35a.27.27,0,0,1-.2,0l-7.9-4.56-8,16.76a.28.28,0,0,1-.18.14l-8,1.7-8.12,14A.26.26,0,0,1,195.05,259.59Z" transform="translate(-18.46 -19.23)"/><g class="cls-18"><path d="M195.05,258.13c.58-.33,1-.06,1,.61a2.29,2.29,0,0,1-1,1.8c-.57.34-1,.07-1-.6A2.34,2.34,0,0,1,195.05,258.13Z" transform="translate(-18.46 -19.23)"/><path d="M203.18,244.06c.57-.33,1-.06,1,.6a2.31,2.31,0,0,1-1,1.81c-.58.34-1.05.07-1.05-.6A2.3,2.3,0,0,1,203.18,244.06Z" transform="translate(-18.46 -19.23)"/><ellipse cx="211.3" cy="243.51" rx="1.48" ry="0.85" transform="translate(-123.7 285.54) rotate(-60)"/><path d="M219.42,225.3c.58-.33,1.05-.06,1.05.6a2.3,2.3,0,0,1-1.05,1.81c-.57.33-1,.06-1-.6A2.31,2.31,0,0,1,219.42,225.3Z" transform="translate(-18.46 -19.23)"/><path d="M227.56,230c.57-.33,1-.06,1,.6a2.31,2.31,0,0,1-1,1.81c-.58.33-1.05.06-1.05-.6A2.3,2.3,0,0,1,227.56,230Z" transform="translate(-18.46 -19.23)"/><path d="M235.67,227.65c.58-.34,1.05-.07,1.05.6a2.33,2.33,0,0,1-1.05,1.81c-.57.33-1,.06-1-.61A2.31,2.31,0,0,1,235.67,227.65Z" transform="translate(-18.46 -19.23)"/><path d="M243.8,220.61c.57-.33,1-.06,1,.6a2.31,2.31,0,0,1-1,1.81c-.58.33-1.05.06-1.05-.6A2.3,2.3,0,0,1,243.8,220.61Z" transform="translate(-18.46 -19.23)"/><path d="M251.92,211.23c.58-.33,1-.06,1,.6a2.29,2.29,0,0,1-1,1.81c-.58.33-1,.06-1-.6A2.29,2.29,0,0,1,251.92,211.23Z" transform="translate(-18.46 -19.23)"/><path d="M260.05,208.88c.57-.33,1-.06,1,.61a2.31,2.31,0,0,1-1,1.8c-.58.34-1.05.07-1.05-.6A2.33,2.33,0,0,1,260.05,208.88Z" transform="translate(-18.46 -19.23)"/><path d="M268.17,201.85c.58-.33,1-.07,1,.6a2.29,2.29,0,0,1-1,1.81c-.58.33-1,.06-1-.6A2.29,2.29,0,0,1,268.17,201.85Z" transform="translate(-18.46 -19.23)"/><path d="M276.29,201.85c.58-.33,1-.06,1,.6a2.3,2.3,0,0,1-1,1.81c-.57.33-1,.06-1-.6A2.31,2.31,0,0,1,276.29,201.85Z" transform="translate(-18.46 -19.23)"/><path d="M284.42,183.09c.57-.34,1-.07,1,.6a2.34,2.34,0,0,1-1,1.81c-.58.33-1.05.06-1.05-.61A2.29,2.29,0,0,1,284.42,183.09Z" transform="translate(-18.46 -19.23)"/><path d="M292.54,192.4c.58-.33,1-.06,1,.6a2.3,2.3,0,0,1-1,1.81c-.57.33-1,.06-1-.6A2.29,2.29,0,0,1,292.54,192.4Z" transform="translate(-18.46 -19.23)"/><path d="M300.67,183.09c.57-.34,1-.07,1,.6a2.34,2.34,0,0,1-1,1.81c-.58.33-1.05.06-1.05-.61A2.29,2.29,0,0,1,300.67,183.09Z" transform="translate(-18.46 -19.23)"/><path d="M308.79,178.4c.58-.34,1-.07,1,.6a2.32,2.32,0,0,1-1,1.81c-.58.33-1,.06-1-.61A2.28,2.28,0,0,1,308.79,178.4Z" transform="translate(-18.46 -19.23)"/><path d="M316.91,178.4c.58-.34,1-.07,1,.6a2.33,2.33,0,0,1-1,1.81c-.57.33-1,.06-1-.61A2.31,2.31,0,0,1,316.91,178.4Z" transform="translate(-18.46 -19.23)"/><path d="M325,173.71c.57-.34,1-.07,1,.6a2.34,2.34,0,0,1-1,1.81c-.58.33-1.05.06-1.05-.61A2.29,2.29,0,0,1,325,173.71Z" transform="translate(-18.46 -19.23)"/><path d="M333.16,173.71c.58-.34,1-.07,1,.6a2.33,2.33,0,0,1-1,1.81c-.57.33-1,.06-1-.61A2.31,2.31,0,0,1,333.16,173.71Z" transform="translate(-18.46 -19.23)"/><path d="M195.05,259.59a.19.19,0,0,1-.12,0,.24.24,0,0,1-.09-.34l8.18-14.1a.22.22,0,0,1,.16-.12l7.95-1.7,8.07-16.89a.22.22,0,0,1,.15-.13.23.23,0,0,1,.2,0l8,4.64,8-2.3,8.07-7,8.11-9.36a.25.25,0,0,1,.12-.08l8.07-2.33,8.09-7a.23.23,0,0,1,.16-.06h8l8.06-18.61a.25.25,0,0,1,.19-.15.26.26,0,0,1,.23.09l7.93,9.16,7.94-9.16a.15.15,0,0,1,.06,0l8.15-4.71a.28.28,0,0,1,.13,0h8.05l8-4.64a.28.28,0,0,1,.13,0h8.12a.25.25,0,0,1,0,.5H325.1l-8,4.64a.28.28,0,0,1-.13,0h-8.05l-8.06,4.66-8.1,9.35a.26.26,0,0,1-.38,0l-7.86-9.08-8,18.39a.25.25,0,0,1-.23.15h-8l-8.05,7-.1.05-8.05,2.32L244,222,235.84,229a.31.31,0,0,1-.1.05l-8.11,2.35a.27.27,0,0,1-.2,0l-7.9-4.56-8,16.76a.28.28,0,0,1-.18.14l-8,1.7-8.12,14A.26.26,0,0,1,195.05,259.59Z" transform="translate(-18.46 -19.23)"/></g><path class="cls-2" d="M199.31,223.33l7.86-4.57c.4-.23.73-.06.73.37a1.56,1.56,0,0,1-.73,1.2l-7.86,4.56c-.4.23-.72.07-.72-.36A1.55,1.55,0,0,1,199.31,223.33Z" transform="translate(-18.46 -19.23)"/><path class="cls-3" d="M195.05,225.3c.58-.33,1-.06,1,.6a2.3,2.3,0,0,1-1,1.81c-.57.33-1,.06-1-.6A2.31,2.31,0,0,1,195.05,225.3Z" transform="translate(-18.46 -19.23)"/><path class="cls-13" d="M195.05,225.3c.58-.33,1-.06,1,.6a2.3,2.3,0,0,1-1,1.81c-.57.33-1,.06-1-.6A2.31,2.31,0,0,1,195.05,225.3Z" transform="translate(-18.46 -19.23)"/><path class="cls-2" d="M199.31,228l7.86-4.57c.4-.23.73-.06.73.37a1.54,1.54,0,0,1-.73,1.19l-7.86,4.57c-.4.23-.72.07-.72-.37A1.53,1.53,0,0,1,199.31,228Z" transform="translate(-18.46 -19.23)"/><path class="cls-3" d="M195.05,230c.58-.33,1-.06,1,.6a2.3,2.3,0,0,1-1,1.81c-.57.33-1,.06-1-.6A2.31,2.31,0,0,1,195.05,230Z" transform="translate(-18.46 -19.23)"/><path class="cls-3" d="M195.05,292.49a.23.23,0,0,1-.17-.07.25.25,0,0,1,0-.35l4.13-4.24,4-.52,4.09-5.28,4.09.56,4-3.58,4.06-2.44,4.14-5.73,4.11,1.29,3.94-3.53a.26.26,0,0,1,.36,0,.25.25,0,0,1,0,.35l-4.16,3.72-4-1.26-4,5.55-4.06,2.43-4.11,3.71-4-.55-4,5.21-4.08.52-4,4.11A.25.25,0,0,1,195.05,292.49Z" transform="translate(-18.46 -19.23)"/><path class="cls-8" d="M196.66,278.77l.1-.09.11-.08a1.23,1.23,0,0,1,.62-.18.72.72,0,0,1,.49.18,1.25,1.25,0,0,1,.32.52,2.66,2.66,0,0,1,.11.8,4.38,4.38,0,0,1-.11.94,5.12,5.12,0,0,1-.32.88,3.6,3.6,0,0,1-.49.75,2.15,2.15,0,0,1-.62.52,1.11,1.11,0,0,1-.61.19.73.73,0,0,1-.49-.19,1.12,1.12,0,0,1-.32-.51,2.36,2.36,0,0,1-.12-.8,4.38,4.38,0,0,1,0-.52c0-.17.06-.33.1-.49s.09-.31.14-.46.11-.3.16-.44l1.08-3.08a1.16,1.16,0,0,0,.06-.15.41.41,0,0,1,.12-.14l.34-.19s.07,0,.09,0a.21.21,0,0,1,0,.12.19.19,0,0,1,0,.08.14.14,0,0,1,0,.06Zm-.76,2.6a1.39,1.39,0,0,0,.07.48.76.76,0,0,0,.19.33.46.46,0,0,0,.31.13.68.68,0,0,0,.4-.12,1.5,1.5,0,0,0,.41-.35,2.63,2.63,0,0,0,.31-.48,3.58,3.58,0,0,0,.19-.55,2.77,2.77,0,0,0,.07-.56,1.75,1.75,0,0,0-.07-.49.91.91,0,0,0-.19-.32.46.46,0,0,0-.31-.13.7.7,0,0,0-.41.12,1.31,1.31,0,0,0-.4.35,1.72,1.72,0,0,0-.31.48,2.76,2.76,0,0,0-.19.55A2.2,2.2,0,0,0,195.9,281.37Z" transform="translate(-18.46 -19.23)"/><path class="cls-8" d="M199.42,279.9a1.06,1.06,0,0,0,.09.25.33.33,0,0,0,.16.17.49.49,0,0,0,.28,0,1.32,1.32,0,0,0,.45-.19,1.49,1.49,0,0,0,.35-.27,2.28,2.28,0,0,0,.3-.38,2.31,2.31,0,0,0,.27-1,1.17,1.17,0,0,0-.07-.46.35.35,0,0,0-.2-.21.43.43,0,0,0-.28,0,1.43,1.43,0,0,0-.37.16l-.49.28a.08.08,0,0,1-.11,0,.23.23,0,0,1-.05-.15v-.33a.51.51,0,0,1,0-.17.77.77,0,0,1,.07-.16l1.06-2.39-1.71,1a.08.08,0,0,1-.11,0,.21.21,0,0,1-.05-.15v-.33a.49.49,0,0,1,.05-.2.33.33,0,0,1,.11-.14l2.35-1.35a.08.08,0,0,1,.11,0,.2.2,0,0,1,.05.14v.33a.57.57,0,0,1,0,.18l-.08.2-1,2.35a1.25,1.25,0,0,1,.54-.17.6.6,0,0,1,.42.13,1,1,0,0,1,.28.43,2.41,2.41,0,0,1,.09.71,3.84,3.84,0,0,1-.11.91,4.56,4.56,0,0,1-.32.81,3.93,3.93,0,0,1-.47.66,2.55,2.55,0,0,1-.58.47,1.78,1.78,0,0,1-.68.25.69.69,0,0,1-.76-.46,1.72,1.72,0,0,1-.1-.53.53.53,0,0,1,0-.17.27.27,0,0,1,.1-.11l.27-.16a.09.09,0,0,1,.1,0A.19.19,0,0,1,199.42,279.9Z" transform="translate(-18.46 -19.23)"/><path class="cls-8" d="M203,277.86a1.83,1.83,0,0,0,.08.25.44.44,0,0,0,.16.17.53.53,0,0,0,.29,0,1.5,1.5,0,0,0,.45-.19,1.73,1.73,0,0,0,.35-.27,1.82,1.82,0,0,0,.29-.38,2,2,0,0,0,.2-.48,2,2,0,0,0,.08-.56,1.12,1.12,0,0,0-.08-.46.38.38,0,0,0-.19-.22.56.56,0,0,0-.29,0,1.38,1.38,0,0,0-.36.16l-.49.28a.09.09,0,0,1-.12,0,.2.2,0,0,1,0-.14v-.33a.51.51,0,0,1,0-.17l.06-.16,1.07-2.4-1.71,1a.09.09,0,0,1-.11,0,.23.23,0,0,1,0-.15v-.33a.49.49,0,0,1,0-.2.27.27,0,0,1,.11-.14l2.34-1.35s.08,0,.11,0,.05.07.05.14v.33a.57.57,0,0,1,0,.18,1.46,1.46,0,0,1-.07.19L204.08,275a1.16,1.16,0,0,1,.55-.17.62.62,0,0,1,.42.13.84.84,0,0,1,.27.43,2.09,2.09,0,0,1,.1.71,3.44,3.44,0,0,1-.12.91,3.6,3.6,0,0,1-.32.81,3.08,3.08,0,0,1-.47.65,2.23,2.23,0,0,1-.57.47,1.65,1.65,0,0,1-.69.26.7.7,0,0,1-.47-.1.77.77,0,0,1-.28-.36,1.53,1.53,0,0,1-.1-.54.32.32,0,0,1,0-.16.35.35,0,0,1,.09-.11l.28-.16s.07,0,.1,0A.23.23,0,0,1,203,277.86Z" transform="translate(-18.46 -19.23)"/><path class="cls-2" d="M195.79,295.72l35.1-20.34c.4-.23.72-.07.72.36a1.55,1.55,0,0,1-.72,1.2l-35.1,20.34c-.4.23-.72.07-.72-.36A1.53,1.53,0,0,1,195.79,295.72Z" transform="translate(-18.46 -19.23)"/><path class="cls-2" d="M195.79,272.25l7.86-4.56c.4-.23.73-.07.73.36a1.54,1.54,0,0,1-.73,1.2l-7.86,4.57c-.4.23-.72.06-.72-.37A1.55,1.55,0,0,1,195.79,272.25Z" transform="translate(-18.46 -19.23)"/><path class="cls-3" d="M195.05,320.61a.28.28,0,0,1-.17-.07.26.26,0,0,1,0-.36l4.13-4.24,4.07-.51,4.1-3.59,4-1.08,4.12-8.2,4.14,2,4-3.51.07,0,4-.75,4-6.91a.26.26,0,0,1,.35-.09.25.25,0,0,1,.09.34l-4.11,7.11-4.12.78-4.13,3.65-4-2-4,8-4.12,1.12-4.08,3.6-4.05.51-4,4.11A.25.25,0,0,1,195.05,320.61Z" transform="translate(-18.46 -19.23)"/><g class="cls-18"><path d="M195.05,320.61a.28.28,0,0,1-.17-.07.26.26,0,0,1,0-.36l4.13-4.24,4.07-.51,4.1-3.59,4-1.08,4.12-8.2,4.14,2,4-3.51.07,0,4-.75,4-6.91a.26.26,0,0,1,.35-.09.25.25,0,0,1,.09.34l-4.11,7.11-4.12.78-4.13,3.65-4-2-4,8-4.12,1.12-4.08,3.6-4.05.51-4,4.11A.25.25,0,0,1,195.05,320.61Z" transform="translate(-18.46 -19.23)"/></g><path class="cls-8" d="M197.13,310.65a.53.53,0,0,1,0,.2.33.33,0,0,1-.11.14l-.25.14a.09.09,0,0,1-.11,0,.21.21,0,0,1-.05-.15v-5l-1,1.68c0,.07-.07.11-.12.13a.11.11,0,0,1-.11,0l-.14-.21a.19.19,0,0,1,0-.16.66.66,0,0,1,.06-.2l1.27-2.24.1-.12.09-.06.25-.14a.08.08,0,0,1,.11,0,.2.2,0,0,1,0,.14Z" transform="translate(-18.46 -19.23)"/><path class="cls-8" d="M199.73,306a4.07,4.07,0,0,0,.26-.66,2.63,2.63,0,0,0,.09-.72,1.14,1.14,0,0,0-.18-.71c-.12-.14-.32-.14-.58,0a1.48,1.48,0,0,0-.36.29,1.58,1.58,0,0,0-.24.39,2.51,2.51,0,0,0-.16.46l-.09.48a.53.53,0,0,1-.06.19.35.35,0,0,1-.09.11L198,306a.08.08,0,0,1-.09,0,.21.21,0,0,1,0-.12,4.09,4.09,0,0,1,.1-.74,4.36,4.36,0,0,1,.28-.79,3.71,3.71,0,0,1,.43-.72,2.14,2.14,0,0,1,.6-.53,1.08,1.08,0,0,1,.57-.17.54.54,0,0,1,.42.18,1.1,1.1,0,0,1,.25.47,2.55,2.55,0,0,1,.09.71,4.68,4.68,0,0,1,0,.55,3.06,3.06,0,0,1-.1.51,4,4,0,0,1-.18.52,5.36,5.36,0,0,1-.26.56l-1.32,2.67,1.82-1.05a.08.08,0,0,1,.11,0,.2.2,0,0,1,.05.14v.33a.46.46,0,0,1-.05.2.27.27,0,0,1-.11.14L198,310.38a.07.07,0,0,1-.11,0,.18.18,0,0,1-.05-.14v-.33a.58.58,0,0,1,0-.19c0-.06.06-.14.1-.24Z" transform="translate(-18.46 -19.23)"/><path class="cls-8" d="M204.43,302.71v1.54a7.19,7.19,0,0,1-.1,1.05,4,4,0,0,1-.28,1,3.28,3.28,0,0,1-.46.8,2.39,2.39,0,0,1-.68.59,1.13,1.13,0,0,1-.67.19.64.64,0,0,1-.47-.26,1.58,1.58,0,0,1-.27-.64,3.76,3.76,0,0,1-.1-.94c0-.27,0-.52,0-.77s0-.5,0-.77a5.19,5.19,0,0,1,.1-1,4.49,4.49,0,0,1,.27-1,3.24,3.24,0,0,1,.47-.81,2.32,2.32,0,0,1,.67-.58,1.18,1.18,0,0,1,.68-.2.73.73,0,0,1,.46.27,1.46,1.46,0,0,1,.28.64A5,5,0,0,1,204.43,302.71Zm-2.47,3a1.85,1.85,0,0,0,.25,1.14c.16.18.39.18.7,0a1.69,1.69,0,0,0,.71-.82,3.73,3.73,0,0,0,.25-1.42c0-.28,0-.54,0-.78s0-.5,0-.77a1.9,1.9,0,0,0-.25-1.14c-.16-.18-.4-.19-.71,0a1.67,1.67,0,0,0-.7.82,3.65,3.65,0,0,0-.25,1.44c0,.27,0,.53,0,.77S202,305.41,202,305.68Z" transform="translate(-18.46 -19.23)"/><path class="cls-2" d="M195.79,323.84l35.1-20.35c.4-.23.72-.06.72.37a1.55,1.55,0,0,1-.72,1.2l-35.1,20.34c-.4.23-.72.07-.72-.37A1.53,1.53,0,0,1,195.79,323.84Z" transform="translate(-18.46 -19.23)"/><path class="cls-2" d="M195.79,300.37l7.86-4.56c.4-.23.73-.07.73.36a1.56,1.56,0,0,1-.73,1.2l-7.86,4.56c-.4.23-.72.07-.72-.36A1.55,1.55,0,0,1,195.79,300.37Z" transform="translate(-18.46 -19.23)"/><path class="cls-3" d="M243.8,264.29a.25.25,0,0,1-.2-.09.26.26,0,0,1,0-.36l4.06-3.24,4.09-4.67,4.16-.6,4-.9,4.1-4.84,4,.71,4.05-6.41,4.11.07,4-3.56a.25.25,0,0,1,.35,0,.24.24,0,0,1,0,.35l-4.12,3.69-4-.06-4.08,6.45-4.08-.72-4,4.75-4.14.94-4,.58-4,4.56-4.1,3.27A.22.22,0,0,1,243.8,264.29Z" transform="translate(-18.46 -19.23)"/><path class="cls-8" d="M245.4,250.57l.11-.09.11-.08a1.18,1.18,0,0,1,.61-.18.72.72,0,0,1,.49.18,1.16,1.16,0,0,1,.32.52,2.36,2.36,0,0,1,.12.8,3.85,3.85,0,0,1-.12.94,4.4,4.4,0,0,1-.32.88,3.6,3.6,0,0,1-.49.75,2.26,2.26,0,0,1-.61.52,1.26,1.26,0,0,1-.62.19.73.73,0,0,1-.49-.19,1.21,1.21,0,0,1-.32-.51,2.66,2.66,0,0,1-.11-.8,3,3,0,0,1,0-.52,3.86,3.86,0,0,1,.1-.49c0-.16.09-.31.14-.46l.15-.44,1.08-3.08a1.07,1.07,0,0,0,.07-.15.27.27,0,0,1,.12-.14l.34-.19a.05.05,0,0,1,.08,0,.16.16,0,0,1,0,.12s0,.06,0,.08a.14.14,0,0,0,0,.06Zm-.76,2.6a1.68,1.68,0,0,0,.07.48.87.87,0,0,0,.19.33.51.51,0,0,0,.31.13.7.7,0,0,0,.41-.12,1.46,1.46,0,0,0,.4-.35,2.19,2.19,0,0,0,.31-.48,2.76,2.76,0,0,0,.19-.55,2.2,2.2,0,0,0,.07-.56,1.45,1.45,0,0,0-.07-.49.72.72,0,0,0-.19-.32.44.44,0,0,0-.31-.13.68.68,0,0,0-.4.12,1.34,1.34,0,0,0-.41.35,2.33,2.33,0,0,0-.31.48,3.58,3.58,0,0,0-.19.55A2.77,2.77,0,0,0,244.64,253.17Z" transform="translate(-18.46 -19.23)"/><path class="cls-8" d="M249.52,249.1a3.54,3.54,0,0,0,.27-.66,2.53,2.53,0,0,0,.09-.72,1,1,0,0,0-.19-.7c-.12-.15-.31-.14-.58,0a1.27,1.27,0,0,0-.35.3,1.41,1.41,0,0,0-.24.39,2.18,2.18,0,0,0-.16.45,4,4,0,0,0-.09.48.47.47,0,0,1-.06.19.27.27,0,0,1-.1.11l-.27.16s-.07,0-.09,0,0-.06,0-.12a3.52,3.52,0,0,1,.1-.74,4.61,4.61,0,0,1,.27-.79,3.75,3.75,0,0,1,.44-.72,2.07,2.07,0,0,1,.59-.52,1,1,0,0,1,.58-.18.62.62,0,0,1,.41.18,1,1,0,0,1,.26.48,2.52,2.52,0,0,1,.08.71,4.63,4.63,0,0,1,0,.54,4.17,4.17,0,0,1-.09.51,5.34,5.34,0,0,1-.18.52,5.53,5.53,0,0,1-.26.56l-1.33,2.67,1.82-1a.1.1,0,0,1,.12,0,.21.21,0,0,1,0,.15v.33a.48.48,0,0,1,0,.2.34.34,0,0,1-.12.14l-2.56,1.48a.09.09,0,0,1-.11,0,.21.21,0,0,1,0-.15V253a.63.63,0,0,1,0-.19,1.33,1.33,0,0,1,.1-.23Z" transform="translate(-18.46 -19.23)"/><path class="cls-8" d="M253.56,243.73a.09.09,0,0,1,.12,0,.2.2,0,0,1,0,.14v.33a1.37,1.37,0,0,1,0,.19c0,.06,0,.14-.05.22l-1.32,6-.06.19a.28.28,0,0,1-.11.13l-.28.16a.08.08,0,0,1-.1,0,.2.2,0,0,1,0-.13v0a.45.45,0,0,0,0-.08l1.33-6L251.15,246a.1.1,0,0,1-.12,0,.21.21,0,0,1-.05-.15v-.33a.53.53,0,0,1,.05-.2.33.33,0,0,1,.12-.14Z" transform="translate(-18.46 -19.23)"/><path class="cls-2" d="M244.53,267.52l35.1-20.34c.4-.23.73-.07.73.36a1.56,1.56,0,0,1-.73,1.2l-35.1,20.34c-.4.23-.72.07-.72-.36A1.53,1.53,0,0,1,244.53,267.52Z" transform="translate(-18.46 -19.23)"/><path class="cls-2" d="M244.53,244.05l7.87-4.56c.4-.23.72-.07.72.36a1.55,1.55,0,0,1-.72,1.2l-7.87,4.57c-.4.23-.72.06-.72-.37A1.55,1.55,0,0,1,244.53,244.05Z" transform="translate(-18.46 -19.23)"/><path class="cls-3" d="M243.8,292.41a.2.2,0,0,1-.13,0,.25.25,0,0,1-.09-.34l4.16-6.81,4.17.77,3.93-1.07,4.06-5,4-1,4.11-7.32,4.19,1.22,3.95-.75,4-3.56a.25.25,0,0,1,.35,0,.25.25,0,0,1,0,.36l-4.1,3.65h-.07l-4.13.79-3.93-1.14-4,7.15-4.08,1-4.06,5-.08,0-4.12,1.12h-.05l-3.9-.72-4,6.52A.27.27,0,0,1,243.8,292.41Z" transform="translate(-18.46 -19.23)"/><g class="cls-18"><path d="M243.8,292.41a.2.2,0,0,1-.13,0,.25.25,0,0,1-.09-.34l4.16-6.81,4.17.77,3.93-1.07,4.06-5,4-1,4.11-7.32,4.19,1.22,3.95-.75,4-3.56a.25.25,0,0,1,.35,0,.25.25,0,0,1,0,.36l-4.1,3.65h-.07l-4.13.79-3.93-1.14-4,7.15-4.08,1-4.06,5-.08,0-4.12,1.12h-.05l-3.9-.72-4,6.52A.27.27,0,0,1,243.8,292.41Z" transform="translate(-18.46 -19.23)"/></g><path class="cls-8" d="M245.68,280.61l-.09.06-.07.05a1.27,1.27,0,0,1-.56.18.72.72,0,0,1-.47-.14,1.16,1.16,0,0,1-.34-.49,2.49,2.49,0,0,1-.13-.85,3.71,3.71,0,0,1,.12-.93,4.25,4.25,0,0,1,.33-.86,3.16,3.16,0,0,1,.47-.73,2.06,2.06,0,0,1,.58-.5,1.16,1.16,0,0,1,.62-.19.67.67,0,0,1,.47.18,1.14,1.14,0,0,1,.29.51,2.66,2.66,0,0,1,.11.8,2.91,2.91,0,0,1,0,.49,4.87,4.87,0,0,1-.12.52c-.05.17-.1.35-.15.51l-.16.46-1.08,3.07-.06.16a.3.3,0,0,1-.12.13l-.34.2s-.07,0-.09,0a.21.21,0,0,1,0-.12.19.19,0,0,1,0-.08.14.14,0,0,1,0-.06Zm.76-2.58a1.85,1.85,0,0,0-.06-.5.7.7,0,0,0-.2-.31.42.42,0,0,0-.29-.11.73.73,0,0,0-.37.12,1.4,1.4,0,0,0-.38.31,2.16,2.16,0,0,0-.29.45,2.47,2.47,0,0,0-.19.54,2.22,2.22,0,0,0-.07.57,1.41,1.41,0,0,0,.07.49.63.63,0,0,0,.19.31.38.38,0,0,0,.29.11.68.68,0,0,0,.38-.11,1.58,1.58,0,0,0,.37-.32,1.74,1.74,0,0,0,.29-.45,2.41,2.41,0,0,0,.2-.53A2.76,2.76,0,0,0,246.44,278Z" transform="translate(-18.46 -19.23)"/><path class="cls-8" d="M248,279.92a1.83,1.83,0,0,0,.08.25.38.38,0,0,0,.16.17.53.53,0,0,0,.29,0,1.5,1.5,0,0,0,.45-.19,1.73,1.73,0,0,0,.35-.27,1.59,1.59,0,0,0,.29-.38,2.55,2.55,0,0,0,.2-.48,2,2,0,0,0,.08-.56,1.15,1.15,0,0,0-.08-.46.36.36,0,0,0-.19-.21.41.41,0,0,0-.29,0,1.07,1.07,0,0,0-.36.15l-.49.28s-.09,0-.12,0a.21.21,0,0,1-.05-.15v-.33a.59.59,0,0,1,0-.17l.06-.16,1.07-2.39-1.71,1a.09.09,0,0,1-.11,0,.17.17,0,0,1,0-.15v-.33a.37.37,0,0,1,0-.2.33.33,0,0,1,.11-.14l2.34-1.35a.08.08,0,0,1,.11,0,.16.16,0,0,1,.05.14v.33a.57.57,0,0,1,0,.18,1,1,0,0,1-.08.2l-1,2.35a1.28,1.28,0,0,1,.55-.17.62.62,0,0,1,.42.13,1,1,0,0,1,.27.43,2.12,2.12,0,0,1,.1.72,3.37,3.37,0,0,1-.12.9,3.91,3.91,0,0,1-.32.81,3.43,3.43,0,0,1-.47.66,2.74,2.74,0,0,1-.57.47,1.82,1.82,0,0,1-.69.25.7.7,0,0,1-.47-.1.68.68,0,0,1-.28-.36,1.47,1.47,0,0,1-.1-.53.35.35,0,0,1,0-.17.2.2,0,0,1,.09-.11l.27-.16a.11.11,0,0,1,.11,0A.31.31,0,0,1,248,279.92Z" transform="translate(-18.46 -19.23)"/><path class="cls-2" d="M244.53,295.64l35.1-20.35c.4-.23.73-.06.73.37a1.56,1.56,0,0,1-.73,1.2l-35.1,20.34c-.4.23-.72.07-.72-.37A1.53,1.53,0,0,1,244.53,295.64Z" transform="translate(-18.46 -19.23)"/><path class="cls-2" d="M244.53,272.17l7.87-4.56c.4-.23.72-.07.72.36a1.55,1.55,0,0,1-.72,1.2l-7.87,4.56c-.4.23-.72.07-.72-.36A1.55,1.55,0,0,1,244.53,272.17Z" transform="translate(-18.46 -19.23)"/><path class="cls-3" d="M296.6,218.64a4.58,4.58,0,0,1,4.63-.34l-4.63,12.48Z" transform="translate(-18.46 -19.23)"/><path class="cls-3" d="M292,223.64a13.84,13.84,0,0,1,4.63-5v12.14Z" transform="translate(-18.46 -19.23)"/><path class="cls-3" d="M289.11,231.36a24.38,24.38,0,0,1,2.86-7.72l4.63,7.14Z" transform="translate(-18.46 -19.23)"/><path class="cls-13" d="M292,223.64a24.38,24.38,0,0,0-2.86,7.72l7.49-.58V218.64A13.76,13.76,0,0,0,292,223.64Z" transform="translate(-18.46 -19.23)"/><path class="cls-3" d="M301.23,218.3a6.48,6.48,0,0,1,2.87,4.4l-7.5,8.08Z" transform="translate(-18.46 -19.23)"/><path class="cls-3" d="M289.11,238.86a15.13,15.13,0,0,1-.39-3.53,21.62,21.62,0,0,1,.39-4l7.49-.58Z" transform="translate(-18.46 -19.23)"/><path class="cls-3" d="M304.1,230.2a24.3,24.3,0,0,1-2.87,7.72l-4.63-7.14Z" transform="translate(-18.46 -19.23)"/><path class="cls-3" d="M296.6,242.92a4.6,4.6,0,0,1-4.63.35l4.63-12.49Z" transform="translate(-18.46 -19.23)"/><path class="cls-3" d="M289.11,238.86l7.49-8.08L292,243.27A6.52,6.52,0,0,1,289.11,238.86Z" transform="translate(-18.46 -19.23)"/><path class="cls-3" d="M304.1,222.7a15.13,15.13,0,0,1,.39,3.53,21.45,21.45,0,0,1-.39,4l-7.5.58Z" transform="translate(-18.46 -19.23)"/><path class="cls-3" d="M301.23,237.92a13.68,13.68,0,0,1-4.63,5V230.78Z" transform="translate(-18.46 -19.23)"/><path class="cls-8" d="M292.67,249.11l7.87-4.56c.4-.23.72-.07.72.36a1.53,1.53,0,0,1-.72,1.2l-7.87,4.57c-.4.23-.72.06-.72-.37A1.55,1.55,0,0,1,292.67,249.11Z" transform="translate(-18.46 -19.23)"/><path class="cls-2" d="M290.94,254.82l11.33-6.58c.4-.23.72-.06.72.37a1.55,1.55,0,0,1-.72,1.2l-11.33,6.57c-.4.23-.73.07-.73-.36A1.56,1.56,0,0,1,290.94,254.82Z" transform="translate(-18.46 -19.23)"/><path class="cls-2" d="M290.94,259.52l11.33-6.58c.4-.23.72-.06.72.37a1.55,1.55,0,0,1-.72,1.2l-11.33,6.57c-.4.23-.73.07-.73-.36A1.56,1.56,0,0,1,290.94,259.52Z" transform="translate(-18.46 -19.23)"/><path class="cls-2" d="M290.94,264.22l11.33-6.57c.4-.23.72-.07.72.36a1.55,1.55,0,0,1-.72,1.2l-11.33,6.58c-.4.23-.73.06-.73-.37A1.56,1.56,0,0,1,290.94,264.22Z" transform="translate(-18.46 -19.23)"/><path class="cls-3" d="M325,202.17a4.58,4.58,0,0,1,4.63-.35L325,214.3Z" transform="translate(-18.46 -19.23)"/><path class="cls-3" d="M320.41,207.17a13.76,13.76,0,0,1,4.63-5V214.3Z" transform="translate(-18.46 -19.23)"/><path class="cls-3" d="M317.54,214.88a24.33,24.33,0,0,1,2.87-7.71L325,214.3Z" transform="translate(-18.46 -19.23)"/><path class="cls-3" d="M329.67,201.82a6.48,6.48,0,0,1,2.87,4.41L325,214.3Z" transform="translate(-18.46 -19.23)"/><path class="cls-3" d="M317.54,222.38a15,15,0,0,1-.39-3.52,21.64,21.64,0,0,1,.39-4l7.5-.58Z" transform="translate(-18.46 -19.23)"/><path class="cls-3" d="M332.54,213.73a24.33,24.33,0,0,1-2.87,7.71L325,214.3Z" transform="translate(-18.46 -19.23)"/><path class="cls-3" d="M325,226.44a4.58,4.58,0,0,1-4.63.35L325,214.3Z" transform="translate(-18.46 -19.23)"/><path class="cls-3" d="M317.54,222.38l7.5-8.08-4.63,12.49A6.48,6.48,0,0,1,317.54,222.38Z" transform="translate(-18.46 -19.23)"/><path class="cls-13" d="M320.41,207.17a24.33,24.33,0,0,0-2.87,7.71,21.64,21.64,0,0,0-.39,4,15,15,0,0,0,.39,3.52,6.48,6.48,0,0,0,2.87,4.41L325,214.3V202.17A13.76,13.76,0,0,0,320.41,207.17Z" transform="translate(-18.46 -19.23)"/><path class="cls-3" d="M332.54,206.23a15.56,15.56,0,0,1,.38,3.52,22.52,22.52,0,0,1-.38,4l-7.5.57Z" transform="translate(-18.46 -19.23)"/><path class="cls-3" d="M329.67,221.44a13.76,13.76,0,0,1-4.63,5V214.3Z" transform="translate(-18.46 -19.23)"/><path class="cls-8" d="M321.11,232.7l7.86-4.57c.4-.23.72-.06.72.37a1.55,1.55,0,0,1-.72,1.2l-7.87,4.56c-.39.23-.72.07-.72-.37A1.54,1.54,0,0,1,321.11,232.7Z" transform="translate(-18.46 -19.23)"/><path class="cls-2" d="M319.37,238.4l11.34-6.57c.39-.23.72-.07.72.36a1.57,1.57,0,0,1-.72,1.2L319.37,240c-.4.23-.72.06-.72-.37A1.55,1.55,0,0,1,319.37,238.4Z" transform="translate(-18.46 -19.23)"/><path class="cls-2" d="M319.37,243.1l11.34-6.57c.39-.23.72-.07.72.36a1.57,1.57,0,0,1-.72,1.2l-11.34,6.58c-.4.23-.72.06-.72-.37A1.55,1.55,0,0,1,319.37,243.1Z" transform="translate(-18.46 -19.23)"/><path class="cls-2" d="M319.37,247.81l11.34-6.58c.39-.23.72-.07.72.36a1.56,1.56,0,0,1-.72,1.2l-11.34,6.58c-.4.23-.72.07-.72-.37A1.53,1.53,0,0,1,319.37,247.81Z" transform="translate(-18.46 -19.23)"/></g><g id="Glass"><path class="cls-3" d="M324.89,364.94a13.36,13.36,0,0,0-5.69-10.66c-1.61-1-3.1-1.15-4.21-.58h0c-6.69,3.35-53.71,33.5-56.72,35l0,0a2.13,2.13,0,0,0-1,1.93,6.73,6.73,0,0,0,2.87,5.37,2.12,2.12,0,0,0,2.14.29l0,0c4.76-2.62,51.16-22.39,60.65-27.48h0C324.1,368.19,324.82,366.86,324.89,364.94Z" transform="translate(-18.46 -19.23)"/><path class="cls-19" d="M323,358.44a12.18,12.18,0,0,0-3.84-4.16c-1.61-1-3.09-1.15-4.2-.59l-.14.08c-6.1,3.12-41.09,25.44-52.87,32.7l-.08,0-.47.29-.15.09-.27.16-.31.2h0c-1.24.76-2.08,1.26-2.41,1.42l0,0a1.14,1.14,0,0,0-.28.21,2.36,2.36,0,0,0-.68,1.72,5.27,5.27,0,0,0,0,.68c0,.08,0,.17,0,.26s.05.27.08.41.05.22.08.33.09.26.13.39.07.19.11.28,0,0,0,.05Z" transform="translate(-18.46 -19.23)"/><path class="cls-3" d="M260.13,396a6.73,6.73,0,0,1-2.85-5.35c.07-1.94,1.45-2.67,3.09-1.65a6.67,6.67,0,0,1,2.85,5.35C263.16,396.3,261.78,397,260.13,396Z" transform="translate(-18.46 -19.23)"/><path class="cls-6" d="M246.08,397.31a5.2,5.2,0,0,0,2.2,4.11,1.65,1.65,0,0,0,1.63.22h0l11.37-6.06h0a1.64,1.64,0,0,0,.73-1.48,5.11,5.11,0,0,0-2.2-4.11,1.62,1.62,0,0,0-1.64-.22h0l-11.37,6.05h0A1.65,1.65,0,0,0,246.08,397.31Z" transform="translate(-18.46 -19.23)"/><path class="cls-7" d="M246.82,395.82a1.65,1.65,0,0,0-.74,1.49,4.44,4.44,0,0,0,.35,1.75l14.66-7.82a4.16,4.16,0,0,0-1.26-1.25,1.62,1.62,0,0,0-1.64-.22l-11.37,6.05Z" transform="translate(-18.46 -19.23)"/><path class="cls-3" d="M260.67,407.4c0-7.28-4.81-14.57-14.44-20.13-19.26-11.12-50.49-11.12-69.76,0C166.84,392.83,162,400.12,162,407.4h0v13.43c0,7.29,4.81,14.57,14.44,20.13,19.27,11.12,50.5,11.12,69.76,0,9.63-5.56,14.44-12.84,14.44-20.13V407.4Zm-81.81-16c8.6-5,20.14-7.7,32.49-7.7s23.89,2.73,32.49,7.7c7.78,4.49,12.06,10.17,12.06,16s-4.28,11.52-12.06,16c-8.6,5-20.14,7.7-32.49,7.7s-23.89-2.73-32.49-7.7c-7.78-4.49-12.06-10.18-12.06-16S171.08,395.89,178.86,391.4Z" transform="translate(-18.46 -19.23)"/><path class="cls-20" d="M176.47,427.54c19.26,11.12,50.49,11.12,69.75,0s19.27-29.15,0-40.27-50.49-11.12-69.75,0S157.21,416.42,176.47,427.54ZM166.8,407.4c0-5.83,4.28-11.51,12.06-16,8.6-5,20.14-7.7,32.49-7.7s23.89,2.73,32.49,7.7c7.78,4.49,12.06,10.17,12.06,16s-4.28,11.52-12.06,16c-8.6,5-20.14,7.7-32.49,7.7s-23.89-2.73-32.49-7.7C171.08,418.92,166.8,413.23,166.8,407.4Z" transform="translate(-18.46 -19.23)"/><path class="cls-3" d="M166.79,407.4a13.25,13.25,0,0,0,1.93,6.72c1.95-3.39,5.4-6.56,10.14-9.29,8.6-5,20.14-7.71,32.49-7.71s23.89,2.74,32.49,7.71c4.74,2.73,8.18,5.9,10.15,9.29a13.32,13.32,0,0,0,1.91-6.72c0-5.83-4.28-11.51-12.06-16-8.6-5-20.14-7.7-32.49-7.7s-23.89,2.73-32.49,7.7C171.08,395.89,166.79,401.57,166.79,407.4Z" transform="translate(-18.46 -19.23)"/><path class="cls-19" d="M166.79,407.4a13.25,13.25,0,0,0,1.93,6.72c1.95-3.39,5.4-6.56,10.14-9.29,8.6-5,20.14-7.71,32.49-7.71s23.89,2.74,32.49,7.71c4.74,2.73,8.18,5.9,10.15,9.29a13.32,13.32,0,0,0,1.91-6.72c0-5.83-4.28-11.51-12.06-16-8.6-5-20.14-7.7-32.49-7.7s-23.89,2.73-32.49,7.7C171.08,395.89,166.79,401.57,166.79,407.4Z" transform="translate(-18.46 -19.23)"/><path class="cls-21" d="M178.86,397.48c8.6-5,20.14-7.7,32.49-7.7s23.89,2.73,32.49,7.7c6.42,3.7,10.45,8.22,11.66,13-1.21,4.75-5.24,9.26-11.66,13-8.6,5-20.14,7.7-32.49,7.7s-23.89-2.73-32.49-7.7c-6.42-3.71-10.45-8.22-11.67-13C168.41,405.7,172.44,401.18,178.86,397.48Z" transform="translate(-18.46 -19.23)"/><path class="cls-19" d="M199.73,435.09V448.5A64.43,64.43,0,0,1,176.48,441C166.84,435.4,162,428.11,162,420.83V407.4a16.88,16.88,0,0,1,.59-4.39h0c-2.34,8.67,2.28,17.84,13.85,24.53A64.63,64.63,0,0,0,199.73,435.09Z" transform="translate(-18.46 -19.23)"/></g><g id="Character-2" data-name="Character"><path class="cls-7" d="M434.81,353.12c.58.24.71,1.36.74,3.6,0,1.68.33,4.64-1.66,5.18s-4.88.18-6.11-1.44A76.64,76.64,0,0,0,423,354.2c-1.9-2.15-4-4.16-4.7-7.12-.65-2.68,0-3.82,1.8-4.56,2.52-1,6.37,2.56,8.31,3.15C430.1,346.18,434.22,352.89,434.81,353.12Z" transform="translate(-18.46 -19.23)"/><path class="cls-22" d="M434.85,351.06l-.06,2.74a6.7,6.7,0,0,1-6.92,0c-.11-.27-.63-3.93-.63-3.93Z" transform="translate(-18.46 -19.23)"/><path class="cls-7" d="M412.28,368.4s.73,2.4,1.11,4.49c.3,1.66.72,4.44.11,5.67s-2.88,2-6.39,1.88c-2.27-.07-5.84,1.39-8.29,2.69s-7.75,1.78-10.39,1.41c-3.11-.44-6.3-2.32-6.78-3.62s.23-2.63,7.65-5.6c.07,0,10.29-3.09,13.93-6.94Z" transform="translate(-18.46 -19.23)"/><path class="cls-22" d="M412.35,365.44s-.06,2-.07,3.19-1.43,2.86-5,2.66c-2.5-.15-4.22-.86-4.08-2.91l.07-3Z" transform="translate(-18.46 -19.23)"/><path class="cls-6" d="M437.45,314.77a74.4,74.4,0,0,0-2.91-14.33s1.26-12.28,2-23.93c.79-12.59,1.52-19.07-.95-37.25,0,0-38.59-3.46-39.65,11.08s.45,51.67.78,58.08,1.32,12.09,2.4,22.49,4.19,34.51,4.19,34.51a9.59,9.59,0,0,0,9.05,0s3.52-29.05,3.38-36.44a63.15,63.15,0,0,0-2.43-16.18s1-12,1.95-22.42,1.75-15.43,2-20l.89-.41s.48,18,.82,24.45,1.22,12.56,2.8,24.49c1.37,10.34,5.66,32.26,5.66,32.26,4.59,2.62,7.42-.16,7.42-.16S438.51,323.74,437.45,314.77Z" transform="translate(-18.46 -19.23)"/><path class="cls-7" d="M417.26,270.43s10-4.63,15-8.91c0,0-4.73,6.36-10.81,9.08,0,0-2.64,22.34-2.62,21.9l-.74-22.08Z" transform="translate(-18.46 -19.23)"/><polygon class="cls-22" points="391.89 168.19 393.39 181.51 405.97 180.87 404.58 165.32 391.89 168.19"/><path class="cls-6" d="M429.18,192.51c4.69-.21,7.06.49,9.17,4.53s2.93,16.11,3.66,22.34.91,10.62-1.65,11.26-12.53.91-12.53.91Z" transform="translate(-18.46 -19.23)"/><path class="cls-8" d="M437.09,199.42c-.68-3.73-5.58-7.65-10.17-6.9-1.07.17-2.11.34-3.12.52-.55,2.24-6.69,3.65-12.56,2.26-1.77.47-7.59,1.56-9.06,2-4.22,1.4-6,5.55-6.62,19.3,0,0,.34,31.15.18,37.35,10.41,4.4,21.34,4.52,27.41,3.33,12.63-2.46,14.27-7.64,14.27-7.64l-1.88-14.25S438.62,207.85,437.09,199.42Z" transform="translate(-18.46 -19.23)"/><path class="cls-6" d="M410.85,191.8l.09.84a18.67,18.67,0,0,0,7.73,0c4.09-.91,4.91-2.06,4.91-2.06l-.08-1s1-.38,1.55,1.19a17.93,17.93,0,0,1,.59,1.91s.47,2.86-4.34,4.32a14.82,14.82,0,0,1-12-1.31l-1.89.4s1.63-3.76,2.12-4.52a1.26,1.26,0,0,1,1.18-.65Z" transform="translate(-18.46 -19.23)"/><polygon class="cls-8" points="353.97 158.29 329.02 171.31 341.42 205.21 364.7 192.17 353.97 158.29"/><polygon class="cls-23" points="352.83 161.61 331.89 172.53 342.87 201.68 362.4 190.73 352.83 161.61"/><path class="cls-9" d="M366.87,184l-.4-1c-.23-.57-2-.23-3.89.77l-3.69,1.9c-1.92,1-3.3,2.26-3.08,2.84l.41,1Z" transform="translate(-18.46 -19.23)"/><path class="cls-3" d="M366.47,179.83c-.14-.36-.9-.3-1.7.13l-1.44.78s-.89-2.24-4.21-.69-2.56,4.15-2.56,4.15L355,185c-.85.47-1.45,1.14-1.35,1.51l.19.65,12.85-6.7S366.61,180.19,366.47,179.83Z" transform="translate(-18.46 -19.23)"/><path class="cls-3" d="M365.08,181.34c-1.19.59-1.67.87-1.32,1.75s.76,1.73.76,1.73l-5.69,3s-.47-1.28-.68-1.78-.62-.73-1.53-.26l-.33-.35,9-4.57Z" transform="translate(-18.46 -19.23)"/><path class="cls-13" d="M365.08,181.34c-1.19.59-1.67.87-1.32,1.75s.76,1.73.76,1.73l-5.69,3s-.47-1.28-.68-1.78-.62-.73-1.53-.26l-.33-.35,9-4.57Z" transform="translate(-18.46 -19.23)"/><path class="cls-3" d="M367.12,184l-.41-1c-.22-.57-2-.23-3.89.76l-3.69,1.9c-1.92,1-3.3,2.27-3.08,2.84l.41,1Z" transform="translate(-18.46 -19.23)"/><path class="cls-22" d="M402.18,197.35c-5.76.5-8.22,1.55-12.54,9.35-4.69,8.46-13.71,23.77-14.86,25.71-1.59,2.69-1.89,6.78-.52,9.25,1.29,2.31,5.36,3.36,10-1.85,5.49-6.2,15.7-21.34,15.7-21.34S408.6,207,402.18,197.35Z" transform="translate(-18.46 -19.23)"/><path class="cls-22" d="M376.65,243.44c-4.41-.54-14.73-14.53-17.66-19.1a32.58,32.58,0,0,0-8.93-9.43c-4.68-3.45-4-8.76-2-13.62.71-1.68,3.1-.59,3.1-.59l.85,2.31,1.46,4c1,.91,1.55,1.21,1.62.94.12-.52-.73-2.66-.71-4.9,0-2.7,1.91-.93,2.48,0a33.81,33.81,0,0,1,2,4.45c.94,2.41.55,4.85,1.7,6.5s16.53,16.38,16.53,16.38Z" transform="translate(-18.46 -19.23)"/><path class="cls-6" d="M403.29,197.05c-3.49-.09-7.69.47-10.93,4.69s-16.25,27.17-16.25,27.17l-7.3-6.54a12.75,12.75,0,0,0-5.61,7.93,79.45,79.45,0,0,0,6.61,9c3.08,3.39,6.52,5.73,9.34,4.69s5.7-3.27,11.77-11.72,12.7-18.44,12.7-18.44S407.8,204.05,403.29,197.05Z" transform="translate(-18.46 -19.23)"/><path class="cls-24" d="M401.49,171.1s-3.14,4.77-2.79,5.23,2.67.89,2.67.89Z" transform="translate(-18.46 -19.23)"/><path class="cls-7" d="M403,174.16a3.74,3.74,0,1,1,3.74-3.74A3.75,3.75,0,0,1,403,174.16Zm0-6.65a2.91,2.91,0,1,0,2.91,2.91A2.91,2.91,0,0,0,403,167.51Z" transform="translate(-18.46 -19.23)"/><path class="cls-22" d="M410.21,157.91c-6.36,1.34-8.19,4.14-8.79,14.24-.63,10.55.45,13.87,1.84,15.29.93,1,6.13,1.13,8.76.41,3.28-.91,10.7-3.54,14.17-8.85,4.09-6.24,5.17-14.71.79-18.18C420.82,155.94,412.8,157.37,410.21,157.91Z" transform="translate(-18.46 -19.23)"/><path class="cls-24" d="M410.43,188.14l-.29-1.94a12.62,12.62,0,0,1-6.52,1.48C404.83,188.27,408,188.45,410.43,188.14Z" transform="translate(-18.46 -19.23)"/><polygon class="cls-7" points="381.1 150.41 392.4 151.87 391.95 152.67 381.1 151.26 381.1 150.41"/><path class="cls-7" d="M400.33,162a3.5,3.5,0,0,0,1.44-.09,2.26,2.26,0,0,0,.77,2.65,3.2,3.2,0,0,0,2.85.38,2.82,2.82,0,0,0-.31,2,3.19,3.19,0,0,0,3.3,2.37c.06,1.48.08,2.92,1.66,3.6,0,0,1-3.9,4.29-3.41s3.76,4.71,1.67,7.27-4,1.59-4,1.58c.2.1.26,1.34.33,1.58a11.79,11.79,0,0,0,.84,2.13,10.43,10.43,0,0,0,3,3.49,7.36,7.36,0,0,0,6,1.66,6.44,6.44,0,0,0,4.35-3.5,3.71,3.71,0,0,1,.71-1.26,4.16,4.16,0,0,1,1.62-.71,4.75,4.75,0,0,0,2.69-6.71,4.36,4.36,0,0,0,1.67-7.62,5.24,5.24,0,0,0,2.25-5.68,5.32,5.32,0,0,0-3.76-3.61c-1.28-.37-.79-.57-1.18-1.83a4.62,4.62,0,0,0-5.86-3,4.58,4.58,0,0,0-5.42-3.5c-.53.14-1.61.63-1.81,1.13-.67-.66-.88-1.52-1.7-2.12a4.85,4.85,0,0,0-2.89-1,5,5,0,0,0-4.21,2.48,5.9,5.9,0,0,0-4.44-1.87,4.85,4.85,0,0,0-4,2.47,4.11,4.11,0,0,0,.54,4.62,4.76,4.76,0,0,0-2.46,2.13,3,3,0,0,0,.35,3.32,2.54,2.54,0,0,0,1.24.92A4.34,4.34,0,0,0,400.33,162Z" transform="translate(-18.46 -19.23)"/><path class="cls-7" d="M410,175.09l.12-4.41a2.21,2.21,0,1,0-.12,4.41Z" transform="translate(-18.46 -19.23)"/></g></g></svg>