<?xml version="1.0" standalone="no"?><svg xmlns="http://www.w3.org/2000/svg" viewBox="0 0 1440 320"><path fill="#0099ff" fill-opacity="1" d="M0,160L20,138.7C40,117,80,75,120,74.7C160,75,200,117,240,117.3C280,117,320,75,360,80C400,85,440,139,480,133.3C520,128,560,64,600,85.3C640,107,680,213,720,245.3C760,277,800,235,840,192C880,149,920,107,960,96C1000,85,1040,107,1080,128C1120,149,1160,171,1200,197.3C1240,224,1280,256,1320,234.7C1360,213,1400,139,1420,101.3L1440,64L1440,0L1420,0C1400,0,1360,0,1320,0C1280,0,1240,0,1200,0C1160,0,1120,0,1080,0C1040,0,1000,0,960,0C920,0,880,0,840,0C800,0,760,0,720,0C680,0,640,0,600,0C560,0,520,0,480,0C440,0,400,0,360,0C320,0,280,0,240,0C200,0,160,0,120,0C80,0,40,0,20,0L0,0Z"></path></svg>